<svg width="327" height="176" viewBox="0 0 327 176" fill="none" xmlns="http://www.w3.org/2000/svg">
<path d="M48.625 16C55.4605 16 61 21.8108 61 29.9459C61 46.2162 44.125 55.5135 38.5 59C32.875 55.5135 16 46.2162 16 29.9459C16 21.8108 21.625 16 28.375 16C32.56 16 36.25 18.3243 38.5 20.6486C40.75 18.3243 44.44 16 48.625 16Z" fill="#6DDC91"/>
<path d="M298.625 117C305.461 117 311 122.811 311 130.946C311 147.216 294.125 156.514 288.5 160C282.875 156.514 266 147.216 266 130.946C266 122.811 271.625 117 278.375 117C282.56 117 286.25 119.324 288.5 121.649C290.75 119.324 294.44 117 298.625 117Z" fill="#6DDC91"/>
<path d="M64 50H155.147C159.484 50 163 53.5161 163 57.8534V57.8534C163 62.1907 159.484 65.7068 155.147 65.7068H102.068C97.6122 65.7068 94 69.319 94 73.7749V73.7749C94 78.2307 97.6122 81.8429 102.068 81.8429H191.385C195.867 81.8429 199.5 85.4762 199.5 89.9581V89.9581C199.5 94.44 195.867 98.0733 191.385 98.0733H140.377C135.75 98.0733 132 101.824 132 106.45V106.45C132 111.077 135.75 114.827 140.377 114.827H227.838C232.622 114.827 236.5 118.705 236.5 123.49V123.49C236.5 128.274 232.622 132.152 227.838 132.152H169.924C164.995 132.152 161 136.147 161 141.076V141.076C161 146.005 164.995 150 169.924 150H260" stroke="#1D2445" stroke-width="2"/>
<g clip-path="url(#clip0_629_12271)">
<path d="M49.5 60.7279L42.8708 54.3639C41.5597 53.1052 40.6669 51.5016 40.3051 49.7558C39.9434 48.0099 40.1291 46.2004 40.8386 44.5558C41.5482 42.9113 42.7498 41.5057 44.2915 40.5168C45.8333 39.5278 47.6458 39 49.5 39C51.3542 39 53.1668 39.5278 54.7085 40.5168C56.2502 41.5057 57.4518 42.9113 58.1614 44.5558C58.8709 46.2004 59.0566 48.0099 58.6949 49.7558C58.3331 51.5016 57.4403 53.1052 56.1292 54.3639L49.5 60.7279ZM54.6563 52.9499C55.6759 51.9709 56.3703 50.7236 56.6516 49.3658C56.9329 48.0079 56.7885 46.6005 56.2366 45.3215C55.6846 44.0424 54.7501 42.9492 53.551 42.1801C52.3519 41.411 50.9421 41.0004 49.5 41.0004C48.0579 41.0004 46.6481 41.411 45.449 42.1801C44.25 42.9492 43.3154 44.0424 42.7635 45.3215C42.2115 46.6005 42.0671 48.0079 42.3484 49.3658C42.6297 50.7236 43.3241 51.9709 44.3438 52.9499L49.5 57.8999L54.6563 52.9499V52.9499ZM49.5 49.9999C48.9475 49.9999 48.4176 49.7892 48.0269 49.4141C47.6362 49.0391 47.4167 48.5304 47.4167 47.9999C47.4167 47.4695 47.6362 46.9608 48.0269 46.5857C48.4176 46.2106 48.9475 45.9999 49.5 45.9999C50.0525 45.9999 50.5824 46.2106 50.9731 46.5857C51.3638 46.9608 51.5833 47.4695 51.5833 47.9999C51.5833 48.5304 51.3638 49.0391 50.9731 49.4141C50.5824 49.7892 50.0525 49.9999 49.5 49.9999Z" fill="#161E37"/>
</g>
<g clip-path="url(#clip1_629_12271)">
<path d="M275.5 158.728L268.871 152.364C267.56 151.105 266.667 149.502 266.305 147.756C265.943 146.01 266.129 144.2 266.839 142.556C267.548 140.911 268.75 139.506 270.292 138.517C271.833 137.528 273.646 137 275.5 137C277.354 137 279.167 137.528 280.708 138.517C282.25 139.506 283.452 140.911 284.161 142.556C284.871 144.2 285.057 146.01 284.695 147.756C284.333 149.502 283.44 151.105 282.129 152.364L275.5 158.728ZM280.656 150.95C281.676 149.971 282.37 148.724 282.652 147.366C282.933 146.008 282.788 144.601 282.237 143.321C281.685 142.042 280.75 140.949 279.551 140.18C278.352 139.411 276.942 139 275.5 139C274.058 139 272.648 139.411 271.449 140.18C270.25 140.949 269.315 142.042 268.763 143.321C268.212 144.601 268.067 146.008 268.348 147.366C268.63 148.724 269.324 149.971 270.344 150.95L275.5 155.9L280.656 150.95V150.95ZM275.5 148C274.947 148 274.418 147.789 274.027 147.414C273.636 147.039 273.417 146.53 273.417 146C273.417 145.469 273.636 144.961 274.027 144.586C274.418 144.211 274.947 144 275.5 144C276.053 144 276.582 144.211 276.973 144.586C277.364 144.961 277.583 145.469 277.583 146C277.583 146.53 277.364 147.039 276.973 147.414C276.582 147.789 276.053 148 275.5 148Z" fill="#161E37"/>
</g>
<defs>
<clipPath id="clip0_629_12271">
<rect width="24" height="24" fill="white" transform="translate(38 38)"/>
</clipPath>
<clipPath id="clip1_629_12271">
<rect width="24" height="24" fill="white" transform="translate(264 136)"/>
</clipPath>
</defs>
</svg>
