<svg width="368" height="92" viewBox="0 0 368 92" fill="none" xmlns="http://www.w3.org/2000/svg">
<path d="M112.184 35.9866L112.575 37.7464L116.094 35.5955C114.53 34.9698 112.835 35.5955 112.184 35.9866Z" fill="#CAF2A3" stroke="#1D2445" stroke-width="0.5"/>
<path d="M103.58 44.1993C102.798 45.7636 103.776 47.1976 104.362 47.719C104.576 47.0015 105.199 45.3319 105.981 44.3934L108.327 46.5443L106.958 43.6112L107.883 42.4395L106.318 40.6797C105.732 41.2011 104.362 42.6351 103.58 44.1993Z" fill="#CAF2A3" stroke="#1D2445" stroke-width="0.5"/>
<path d="M107.688 39.3117L108.274 42.0492C109.104 41.1372 110.969 39.1565 111.794 38.5296L111.207 36.5742L107.688 39.3117Z" fill="#CAF2A3" stroke="#1D2445" stroke-width="0.5"/>
<path d="M101.489 34.3216C103.392 34.942 106.163 31.6793 107.677 27.0342C109.19 22.3891 108.874 18.1206 106.97 17.5002C105.59 17.0503 103.753 18.6427 102.271 21.3234L103.775 24.6475L101.82 22.1959C101.436 22.9917 101.084 23.8623 100.783 24.7876C100.755 24.8714 100.729 24.9551 100.702 25.0386L103.189 27.3851L102.798 28.3627L100.372 26.2118C99.3512 30.2759 99.7818 33.7653 101.489 34.3216Z" fill="#CAF2A3" stroke="#1D2445" stroke-width="0.5"/>
<path d="M87.4969 12.4992C86.1775 7.12135 86.9078 2.32012 89.1282 1.77539C90.7384 1.38034 92.69 3.33241 94.1442 6.48623L92.1436 10.1216L94.5817 7.51002C94.9502 8.44177 95.2746 9.4552 95.5374 10.5266C95.5612 10.6236 95.5843 10.7204 95.6068 10.817L92.5735 13.2658L92.9337 14.4036L95.8814 12.1711C96.69 16.8512 95.897 20.762 93.9061 21.2504C93.7584 21.2866 93.6079 21.3031 93.4551 21.3008C91.7893 18.9386 90.2999 18.2449 89.7635 18.1934C88.8473 16.6832 88.0405 14.7151 87.4969 12.4992Z" fill="#CAF2A3" stroke="#1D2445" stroke-width="0.5"/>
<path d="M105.535 51.6309C104.753 53.9121 103.306 60.2345 103.775 67.2738" stroke="#1D2445" stroke-width="0.5"/>
<path d="M104.558 46.9368C103.776 48.814 104.884 50.8476 105.536 51.6297L116.29 35.5957C115.899 35.8564 115.505 35.9153 114.139 36.7689C111.011 38.7243 108.469 41.8529 106.904 43.6127L108.469 46.5458L106.122 44.3949C105.927 44.46 105.34 45.0597 104.558 46.9368Z" fill="#CAF2A3" stroke="#1D2445" stroke-width="0.5"/>
<path d="M96.7383 34.2285C97.9115 41.2678 100.102 57.732 99.4758 67.2742" stroke="#1D2445" stroke-width="0.5"/>
<path d="M88.9141 5.0918C90.5435 9.91503 93.9198 20.1872 94.3891 22.6901" stroke="#1D2445" stroke-width="0.5"/>
<path d="M105.733 21.7129C104.559 23.5379 101.861 35.1658 100.453 67.0774" stroke="#1D2445" stroke-width="0.5"/>
<path d="M87.352 25.4291H91.8494L86.9609 22.6914L87.1565 20.7361H88.7208L87.5475 19.3674C88.9554 17.1774 91.002 18.4549 91.8494 19.3674C92.8922 20.4755 95.2126 23.3955 96.1512 26.2112C97.3244 29.7309 97.1288 34.6193 95.9556 35.4014C94.7824 36.1836 93.6092 36.3791 91.4583 34.0327C89.7376 32.1555 88.0038 27.5148 87.352 25.4291Z" fill="#CAF2A3" stroke="#1D2445" stroke-width="0.5"/>
<path d="M97.9115 67.0781C97.716 62.2548 97.1685 50.8876 96.5428 44.0047C95.7606 35.4011 94.3919 26.7975 89.8945 21.127" stroke="#1D2445" stroke-width="0.5"/>
<path d="M87.1548 33.8379L85.0039 36.3799C86.9593 36.445 91.0264 36.8492 91.6522 37.9442C90.87 35.7541 88.328 34.2941 87.1548 33.8379Z" fill="#CAF2A3" stroke="#1D2445" stroke-width="0.5"/>
<path d="M82.071 33.0547L81.4844 36.1833L84.2219 36.3788L85.004 33.0547H82.071Z" fill="#CAF2A3" stroke="#1D2445" stroke-width="0.5"/>
<path d="M91.0685 41.2658L75.6211 35.9863C79.3754 35.9863 86.7667 36.5729 89.3087 36.964C90.156 37.0944 91.8897 37.6679 92.0462 38.9194C92.2026 40.1708 91.4596 41.0051 91.0685 41.2658Z" fill="#CAF2A3" stroke="#1D2445" stroke-width="0.5"/>
<path d="M79.3273 33.6406L80.696 36.1826C79.3273 36.1826 75.6121 35.9871 75.6121 35.9871C74.8365 34.8138 77.5674 34.0317 79.3273 33.6406Z" fill="#CAF2A3" stroke="#1D2445" stroke-width="0.5"/>
<path d="M94.3901 67.272L93.4124 46.5451C93.3472 45.5023 92.8649 42.9863 91.457 41.2656" stroke="#1D2445" stroke-width="0.5"/>
<path d="M86.9609 79.3965C88.8511 79.7876 93.1008 80.5306 94.9779 80.3742C97.3244 80.1786 99.8664 80.3742 101.822 80.3742C103.777 80.3742 107.101 80.7652 108.274 80.3742C109.213 80.0613 110.882 79.9831 111.599 79.9831" stroke="#1D2445" stroke-width="0.5"/>
<path d="M87.3523 78.028C87.8216 76.1508 89.1122 70.0761 89.6988 67.2734H109.057C109.057 69.2288 110.816 75.2904 111.208 77.6369C111.599 79.9833 111.99 81.1565 111.794 85.8494C111.638 89.6037 108.47 91.3244 106.906 91.7155H92.2405C88.7208 91.7155 87.3523 88.1959 86.9613 86.8271C86.5702 85.4583 86.7657 80.3744 87.3523 78.028Z" stroke="#1D2445" stroke-width="0.5"/>
<path d="M0 85.2617H86.8183M368 85.2617H111.847" stroke="#1D2445" stroke-width="0.5"/>
</svg>
