<svg width="368" height="92" viewBox="0 0 368 92" fill="none" xmlns="http://www.w3.org/2000/svg">
<path d="M288.105 35.1975L287.714 36.9574L284.195 34.8065C285.759 34.1807 287.454 34.8065 288.105 35.1975Z" fill="#CAF2A3" stroke="#1D2445" stroke-width="0.5"/>
<path d="M296.709 43.4103C297.491 44.9746 296.513 46.4085 295.927 46.9299C295.713 46.2125 295.09 44.5429 294.308 43.6043L291.962 45.7552L293.331 42.8221L292.406 41.6505L293.971 39.8906C294.558 40.4121 295.927 41.846 296.709 43.4103Z" fill="#CAF2A3" stroke="#1D2445" stroke-width="0.5"/>
<path d="M292.602 38.5227L292.015 41.2602C291.185 40.3482 289.32 38.3675 288.495 37.7405L289.082 35.7852L292.602 38.5227Z" fill="#CAF2A3" stroke="#1D2445" stroke-width="0.5"/>
<path d="M298.8 33.5325C296.897 34.1529 294.126 30.8902 292.612 26.2451C291.099 21.6 291.415 17.3315 293.319 16.7112C294.699 16.2613 296.536 17.8536 298.018 20.5344L296.514 23.8585L298.469 21.4068C298.853 22.2027 299.205 23.0732 299.506 23.9986C299.534 24.0824 299.56 24.166 299.587 24.2496L297.1 26.596L297.491 27.5737L299.917 25.4228C300.938 29.4868 300.507 32.9763 298.8 33.5325Z" fill="#CAF2A3" stroke="#1D2445" stroke-width="0.5"/>
<path d="M312.792 11.7102C314.112 6.33228 313.381 1.53106 311.161 0.986326C309.551 0.59128 307.599 2.54334 306.145 5.69717L308.145 9.33249L305.707 6.72096C305.339 7.65271 305.014 8.66614 304.752 9.73751C304.728 9.83451 304.705 9.93133 304.682 10.0279L307.716 12.4767L307.355 13.6146L304.408 11.382C303.599 16.0621 304.392 19.9729 306.383 20.4613C306.531 20.4976 306.681 20.5141 306.834 20.5117C308.5 18.1495 309.989 17.4559 310.526 17.4043C311.442 15.8941 312.249 13.9261 312.792 11.7102Z" fill="#CAF2A3" stroke="#1D2445" stroke-width="0.5"/>
<path d="M294.754 50.8418C295.536 53.1231 296.983 59.4454 296.514 66.4847" stroke="#1D2445" stroke-width="0.5"/>
<path d="M295.731 46.1478C296.513 48.0249 295.405 50.0585 294.753 50.8406L283.999 34.8066C284.39 35.0674 284.784 35.1263 286.15 35.9799C289.278 37.9352 291.82 41.0638 293.385 42.8236L291.82 45.7567L294.167 43.6058C294.362 43.671 294.949 44.2706 295.731 46.1478Z" fill="#CAF2A3" stroke="#1D2445" stroke-width="0.5"/>
<path d="M303.551 33.4395C302.378 40.4788 300.188 56.943 300.813 66.4851" stroke="#1D2445" stroke-width="0.5"/>
<path d="M311.375 4.30273C309.746 9.12597 306.369 19.3982 305.9 21.901" stroke="#1D2445" stroke-width="0.5"/>
<path d="M294.556 20.9238C295.73 22.7488 298.428 34.3768 299.836 66.2883" stroke="#1D2445" stroke-width="0.5"/>
<path d="M312.937 24.64H308.44L313.328 21.9024L313.133 19.947H311.568L312.742 18.5784C311.334 16.3883 309.287 17.6659 308.44 18.5784C307.397 19.6864 305.076 22.6064 304.138 25.4221C302.965 28.9418 303.16 33.8302 304.333 34.6124C305.507 35.3945 306.68 35.59 308.831 33.2436C310.552 31.3665 312.285 26.7257 312.937 24.64Z" fill="#CAF2A3" stroke="#1D2445" stroke-width="0.5"/>
<path d="M302.378 66.289C302.573 61.4658 303.121 50.0986 303.746 43.2157C304.528 34.6121 305.897 26.0085 310.395 20.3379" stroke="#1D2445" stroke-width="0.5"/>
<path d="M313.134 33.0488L315.285 35.5908C313.33 35.656 309.263 36.0601 308.637 37.1551C309.419 34.9651 311.961 33.5051 313.134 33.0488Z" fill="#CAF2A3" stroke="#1D2445" stroke-width="0.5"/>
<path d="M318.218 32.2656L318.805 35.3942L316.067 35.5897L315.285 32.2656H318.218Z" fill="#CAF2A3" stroke="#1D2445" stroke-width="0.5"/>
<path d="M309.221 40.4768L324.668 35.1973C320.914 35.1973 313.522 35.7839 310.98 36.1749C310.133 36.3053 308.399 36.8789 308.243 38.1303C308.086 39.3818 308.829 40.216 309.221 40.4768Z" fill="#CAF2A3" stroke="#1D2445" stroke-width="0.5"/>
<path d="M320.962 32.8516L319.593 35.3935C320.962 35.3935 324.677 35.198 324.677 35.198C325.453 34.0248 322.722 33.2426 320.962 32.8516Z" fill="#CAF2A3" stroke="#1D2445" stroke-width="0.5"/>
<path d="M305.899 66.4829L306.877 45.7561C306.942 44.7132 307.424 42.1973 308.832 40.4766" stroke="#1D2445" stroke-width="0.5"/>
<path d="M313.328 78.6074C311.438 78.9985 307.188 79.7415 305.311 79.5851C302.965 79.3896 300.423 79.5851 298.467 79.5851C296.512 79.5851 293.188 79.9762 292.015 79.5851C291.076 79.2722 289.407 79.194 288.691 79.194" stroke="#1D2445" stroke-width="0.5"/>
<path d="M312.937 77.2389C312.467 75.3617 311.177 69.2871 310.59 66.4844H291.232C291.232 68.4397 289.473 74.5014 289.082 76.8478C288.69 79.1943 288.299 80.3675 288.495 85.0604C288.651 88.8147 291.819 90.5354 293.383 90.9265H308.049C311.568 90.9265 312.937 87.4068 313.328 86.038C313.719 84.6693 313.523 79.5853 312.937 77.2389Z" stroke="#1D2445" stroke-width="0.5"/>
<path d="M0 86.4727H288.5M368 86.4727H313.107" stroke="#1D2445" stroke-width="0.5"/>
</svg>
