<svg width="391" height="360" viewBox="0 0 391 360" fill="none" xmlns="http://www.w3.org/2000/svg">
<path d="M233.853 71C262.41 71 285.553 94.6486 285.553 127.757C285.553 193.973 215.053 231.811 191.553 246C168.053 231.811 97.5527 193.973 97.5527 127.757C97.5527 94.6486 121.053 71 149.253 71C166.737 71 182.153 80.4595 191.553 89.9189C200.953 80.4595 216.369 71 233.853 71Z" fill="url(#paint0_linear_523_470)"/>
<path d="M56.575 51C60.6763 51 64 54.5135 64 59.4324C64 69.2703 53.875 74.8919 50.5 77C47.125 74.8919 37 69.2703 37 59.4324C37 54.5135 40.375 51 44.425 51C46.936 51 49.15 52.4054 50.5 53.8108C51.85 52.4054 54.064 51 56.575 51Z" fill="white" fill-opacity="0.4"/>
<path d="M278.575 303C282.676 303 286 306.514 286 311.432C286 321.27 275.875 326.892 272.5 329C269.125 326.892 259 321.27 259 311.432C259 306.514 262.375 303 266.425 303C268.936 303 271.15 304.405 272.5 305.811C273.85 304.405 276.064 303 278.575 303Z" fill="white" fill-opacity="0.4"/>
<path d="M107.625 21C114.461 21 120 26.8108 120 34.9459C120 51.2162 103.125 60.5135 97.5 64C91.875 60.5135 75 51.2162 75 34.9459C75 26.8108 80.625 21 87.375 21C91.56 21 95.25 23.3243 97.5 25.6486C99.75 23.3243 103.44 21 107.625 21Z" fill="white" fill-opacity="0.4"/>
<path d="M1 295C42.1667 285.5 169.453 259.578 211.053 230.378C263.053 193.878 282.053 171.878 281.053 129.378C280.053 86.8778 261.053 79.3778 257.053 76.8778C253.053 74.3778 219.053 63.8778 198.553 86.8778C178.053 109.878 199.553 110.878 202.053 104.378C204.553 97.8779 194.053 84.8778 180.053 76.8778C166.053 68.8779 128.553 66.3778 115.553 86.8778C102.553 107.378 95.5527 128.378 110.553 162.378C125.553 196.378 173.553 234.878 216.553 257.878C259.553 280.878 275.18 285.5 299.68 269.5C324.18 253.5 320.02 222 350.5 223" stroke="white" stroke-width="2"/>
<path d="M301.476 64.3348L301.645 64.2596C304.108 63.1424 305.913 64.4264 305.648 67.0952C305.167 71.8644 305.326 78.2772 304.794 83.0434C304.788 83.0996 304.776 83.1551 304.758 83.209C304.708 83.3439 304.626 83.465 304.519 83.5618C304.411 83.6586 304.282 83.7282 304.143 83.7647C304.003 83.8012 303.856 83.8034 303.716 83.7712C303.575 83.739 303.445 83.6733 303.336 83.5798C303.243 83.5014 303.166 83.4047 303.111 83.2956C301.753 80.368 299.738 75.7829 298.506 72.8011C298.015 71.6081 297.365 71.4207 296.422 71.9463C296.277 72.0339 296.128 72.1137 295.974 72.1856C295.277 72.4937 294.487 72.5158 293.777 72.247C293.068 71.9781 292.496 71.4403 292.187 70.7511C290.395 66.7178 288.604 62.6844 286.813 58.6511C286.303 57.5028 286.667 56.5959 287.763 56.0899C290.815 54.6833 293.875 53.2858 296.982 52.0084C298.487 51.3891 299.435 52.1358 299.533 53.8128C299.738 56.9239 299.929 60.0414 300.141 63.1623C300.151 63.3115 300.165 63.4609 300.184 63.6148C300.2 63.7579 300.25 63.895 300.329 64.0148C300.409 64.1347 300.516 64.2338 300.643 64.3041C300.769 64.3744 300.91 64.4138 301.055 64.4191C301.2 64.4245 301.344 64.3956 301.476 64.3348Z" fill="white" fill-opacity="0.4"/>
<path d="M69.0176 116.303L69.195 116.356C71.7924 117.108 72.3293 119.257 70.393 121.113C66.9272 124.424 62.8789 129.4 59.3765 132.676C59.3351 132.715 59.2898 132.749 59.2412 132.778C59.1155 132.848 58.9745 132.887 58.8301 132.891C58.6857 132.895 58.5424 132.864 58.4124 132.801C58.2824 132.737 58.1697 132.644 58.0839 132.528C57.9982 132.412 57.942 132.278 57.9201 132.136C57.8998 132.016 57.9044 131.892 57.9336 131.774C58.8047 128.666 60.2545 123.872 61.2571 120.806C61.6595 119.58 61.2875 119.015 60.2291 118.801C60.0621 118.774 59.8967 118.737 59.7335 118.692C59.0032 118.473 58.3886 117.976 58.0241 117.31C57.6596 116.645 57.5747 115.864 57.788 115.14C59.0489 110.91 60.3099 106.681 61.5708 102.452C61.9298 101.248 62.7962 100.796 63.9582 101.124C67.1914 102.039 70.425 102.966 73.6162 104.015C75.1623 104.523 75.3972 105.707 74.3817 107.045C72.515 109.542 70.6333 112.035 68.7652 114.544C68.6759 114.664 68.59 114.787 68.5042 114.916C68.4232 115.035 68.3718 115.172 68.3545 115.315C68.3371 115.458 68.3542 115.603 68.4043 115.738C68.4544 115.874 68.5362 115.995 68.6428 116.094C68.7494 116.192 68.8778 116.264 69.0176 116.303Z" fill="white" fill-opacity="0.4"/>
<path d="M238.937 318.269L239.264 318.367C244.054 319.754 245.044 323.717 241.473 327.139C235.082 333.246 227.616 342.422 221.157 348.464C221.081 348.535 220.997 348.598 220.908 348.652C220.676 348.781 220.416 348.853 220.15 348.86C219.883 348.867 219.619 348.81 219.379 348.693C219.14 348.577 218.932 348.404 218.774 348.191C218.615 347.977 218.512 347.729 218.471 347.468C218.434 347.245 218.442 347.018 218.496 346.799C220.103 341.068 222.776 332.228 224.625 326.573C225.368 324.312 224.681 323.27 222.73 322.876C222.422 322.825 222.117 322.758 221.816 322.675C220.469 322.271 219.336 321.354 218.663 320.127C217.991 318.899 217.834 317.46 218.228 316.124C220.553 308.324 222.879 300.525 225.204 292.726C225.866 290.505 227.464 289.671 229.607 290.276C235.569 291.964 241.532 293.674 247.417 295.609C250.269 296.545 250.702 298.728 248.829 301.196C245.387 305.801 241.916 310.399 238.471 315.026C238.307 315.247 238.148 315.474 237.99 315.712C237.841 315.931 237.746 316.183 237.714 316.447C237.682 316.71 237.714 316.978 237.806 317.227C237.898 317.477 238.049 317.702 238.246 317.883C238.442 318.064 238.679 318.197 238.937 318.269Z" fill="white" fill-opacity="0.4"/>
<mask id="path-9-inside-1_523_470" fill="white">
<path d="M362 236C360.293 236 358.602 235.664 357.025 235.01C355.448 234.357 354.015 233.4 352.808 232.192C351.6 230.985 350.643 229.552 349.99 227.975C349.336 226.398 349 224.707 349 223C349 221.293 349.336 219.602 349.99 218.025C350.643 216.448 351.6 215.015 352.808 213.808C354.015 212.6 355.448 211.643 357.025 210.99C358.602 210.336 360.293 210 362 210L362 223L362 236Z"/>
</mask>
<path d="M362 236C360.293 236 358.602 235.664 357.025 235.01C355.448 234.357 354.015 233.4 352.808 232.192C351.6 230.985 350.643 229.552 349.99 227.975C349.336 226.398 349 224.707 349 223C349 221.293 349.336 219.602 349.99 218.025C350.643 216.448 351.6 215.015 352.808 213.808C354.015 212.6 355.448 211.643 357.025 210.99C358.602 210.336 360.293 210 362 210L362 223L362 236Z" fill="white" stroke="white" stroke-width="2" mask="url(#path-9-inside-1_523_470)"/>
<path d="M356 219H367.5" stroke="white" stroke-width="3" stroke-linecap="round"/>
<path d="M356 226H367.5" stroke="white" stroke-width="3" stroke-linecap="round"/>
<defs>
<linearGradient id="paint0_linear_523_470" x1="99.3428" y1="204.984" x2="291.754" y2="86.4331" gradientUnits="userSpaceOnUse">
<stop stop-color="#6DDC91"/>
<stop offset="0.249794" stop-color="#8EE59C"/>
<stop offset="1" stop-color="#E8FDBC" stop-opacity="0.91"/>
</linearGradient>
</defs>
</svg>
