<svg width="20" height="26" viewBox="0 0 20 26" fill="none" xmlns="http://www.w3.org/2000/svg">
<path d="M0.5 25.5C0.5 22.9741 1.50089 20.5517 3.28249 18.7656C5.06408 16.9796 7.48044 15.9762 10 15.9762C12.5196 15.9762 14.9359 16.9796 16.7175 18.7656C18.4991 20.5517 19.5 22.9741 19.5 25.5H17.125C17.125 23.6056 16.3743 21.7888 15.0381 20.4492C13.7019 19.1097 11.8897 18.3571 10 18.3571C8.11033 18.3571 6.29806 19.1097 4.96186 20.4492C3.62567 21.7888 2.875 23.6056 2.875 25.5H0.5ZM10 14.7857C6.06344 14.7857 2.875 11.5893 2.875 7.64286C2.875 3.69643 6.06344 0.5 10 0.5C13.9366 0.5 17.125 3.69643 17.125 7.64286C17.125 11.5893 13.9366 14.7857 10 14.7857ZM10 12.4048C12.6244 12.4048 14.75 10.2738 14.75 7.64286C14.75 5.0119 12.6244 2.88095 10 2.88095C7.37563 2.88095 5.25 5.0119 5.25 7.64286C5.25 10.2738 7.37563 12.4048 10 12.4048Z" fill="currentColor"/>
</svg>
