<svg width="57" height="26" viewBox="0 0 57 26" fill="none" xmlns="http://www.w3.org/2000/svg">
<path d="M0 25.5C0 22.9741 1.00089 20.5517 2.78249 18.7656C4.56408 16.9796 6.98044 15.9762 9.5 15.9762C12.0196 15.9762 14.4359 16.9796 16.2175 18.7656C17.9991 20.5517 19 22.9741 19 25.5H16.625C16.625 23.6056 15.8743 21.7888 14.5381 20.4492C13.2019 19.1097 11.3897 18.3571 9.5 18.3571C7.61033 18.3571 5.79806 19.1097 4.46186 20.4492C3.12567 21.7888 2.375 23.6056 2.375 25.5H0ZM9.5 14.7857C5.56344 14.7857 2.375 11.5893 2.375 7.64286C2.375 3.69643 5.56344 0.5 9.5 0.5C13.4366 0.5 16.625 3.69643 16.625 7.64286C16.625 11.5893 13.4366 14.7857 9.5 14.7857ZM9.5 12.4048C12.1244 12.4048 14.25 10.2738 14.25 7.64286C14.25 5.0119 12.1244 2.88095 9.5 2.88095C6.87563 2.88095 4.75 5.0119 4.75 7.64286C4.75 10.2738 6.87563 12.4048 9.5 12.4048Z" fill="#1D2445"/>
<path d="M19 25.5C19 22.9741 20.0009 20.5517 21.7825 18.7656C23.5641 16.9796 25.9804 15.9762 28.5 15.9762C31.0196 15.9762 33.4359 16.9796 35.2175 18.7656C36.9991 20.5517 38 22.9741 38 25.5H35.625C35.625 23.6056 34.8743 21.7888 33.5381 20.4492C32.2019 19.1097 30.3897 18.3571 28.5 18.3571C26.6103 18.3571 24.7981 19.1097 23.4619 20.4492C22.1257 21.7888 21.375 23.6056 21.375 25.5H19ZM28.5 14.7857C24.5634 14.7857 21.375 11.5893 21.375 7.64286C21.375 3.69643 24.5634 0.5 28.5 0.5C32.4366 0.5 35.625 3.69643 35.625 7.64286C35.625 11.5893 32.4366 14.7857 28.5 14.7857ZM28.5 12.4048C31.1244 12.4048 33.25 10.2738 33.25 7.64286C33.25 5.0119 31.1244 2.88095 28.5 2.88095C25.8756 2.88095 23.75 5.0119 23.75 7.64286C23.75 10.2738 25.8756 12.4048 28.5 12.4048Z" fill="#1D2445"/>
<path d="M38 25.5C38 22.9741 39.0009 20.5517 40.7825 18.7656C42.5641 16.9796 44.9804 15.9762 47.5 15.9762C50.0196 15.9762 52.4359 16.9796 54.2175 18.7656C55.9991 20.5517 57 22.9741 57 25.5H54.625C54.625 23.6056 53.8743 21.7888 52.5381 20.4492C51.2019 19.1097 49.3897 18.3571 47.5 18.3571C45.6103 18.3571 43.7981 19.1097 42.4619 20.4492C41.1257 21.7888 40.375 23.6056 40.375 25.5H38ZM47.5 14.7857C43.5634 14.7857 40.375 11.5893 40.375 7.64286C40.375 3.69643 43.5634 0.5 47.5 0.5C51.4366 0.5 54.625 3.69643 54.625 7.64286C54.625 11.5893 51.4366 14.7857 47.5 14.7857ZM47.5 12.4048C50.1244 12.4048 52.25 10.2738 52.25 7.64286C52.25 5.0119 50.1244 2.88095 47.5 2.88095C44.8756 2.88095 42.75 5.0119 42.75 7.64286C42.75 10.2738 44.8756 12.4048 47.5 12.4048Z" fill="#1D2445"/>
</svg>
