<svg width="53" height="50" viewBox="0 0 53 50" fill="none" xmlns="http://www.w3.org/2000/svg">
<path d="M0 37.5C0 34.9741 1.00089 32.5517 2.78249 30.7656C4.56408 28.9796 6.98044 27.9762 9.5 27.9762C12.0196 27.9762 14.4359 28.9796 16.2175 30.7656C17.9991 32.5517 19 34.9741 19 37.5H16.625C16.625 35.6056 15.8743 33.7888 14.5381 32.4492C13.2019 31.1097 11.3897 30.3571 9.5 30.3571C7.61033 30.3571 5.79806 31.1097 4.46186 32.4492C3.12567 33.7888 2.375 35.6056 2.375 37.5H0ZM9.5 26.7857C5.56344 26.7857 2.375 23.5893 2.375 19.6429C2.375 15.6964 5.56344 12.5 9.5 12.5C13.4366 12.5 16.625 15.6964 16.625 19.6429C16.625 23.5893 13.4366 26.7857 9.5 26.7857ZM9.5 24.4048C12.1244 24.4048 14.25 22.2738 14.25 19.6429C14.25 17.0119 12.1244 14.881 9.5 14.881C6.87562 14.881 4.75 17.0119 4.75 19.6429C4.75 22.2738 6.87562 24.4048 9.5 24.4048Z" fill="#1D2445"/>
<path d="M34 37.5C34 34.9741 35.0009 32.5517 36.7825 30.7656C38.5641 28.9796 40.9804 27.9762 43.5 27.9762C46.0196 27.9762 48.4359 28.9796 50.2175 30.7656C51.9991 32.5517 53 34.9741 53 37.5H50.625C50.625 35.6056 49.8743 33.7888 48.5381 32.4492C47.2019 31.1097 45.3897 30.3571 43.5 30.3571C41.6103 30.3571 39.7981 31.1097 38.4619 32.4492C37.1257 33.7888 36.375 35.6056 36.375 37.5H34ZM43.5 26.7857C39.5634 26.7857 36.375 23.5893 36.375 19.6429C36.375 15.6964 39.5634 12.5 43.5 12.5C47.4366 12.5 50.625 15.6964 50.625 19.6429C50.625 23.5893 47.4366 26.7857 43.5 26.7857ZM43.5 24.4048C46.1244 24.4048 48.25 22.2738 48.25 19.6429C48.25 17.0119 46.1244 14.881 43.5 14.881C40.8756 14.881 38.75 17.0119 38.75 19.6429C38.75 22.2738 40.8756 24.4048 43.5 24.4048Z" fill="#1D2445"/>
<path d="M17 25.5C17 22.9741 18.0009 20.5517 19.7825 18.7656C21.5641 16.9796 23.9804 15.9762 26.5 15.9762C29.0196 15.9762 31.4359 16.9796 33.2175 18.7656C34.9991 20.5517 36 22.9741 36 25.5H33.625C33.625 23.6056 32.8743 21.7888 31.5381 20.4492C30.2019 19.1097 28.3897 18.3571 26.5 18.3571C24.6103 18.3571 22.7981 19.1097 21.4619 20.4492C20.1257 21.7888 19.375 23.6056 19.375 25.5H17ZM26.5 14.7857C22.5634 14.7857 19.375 11.5893 19.375 7.64286C19.375 3.69643 22.5634 0.5 26.5 0.5C30.4366 0.5 33.625 3.69643 33.625 7.64286C33.625 11.5893 30.4366 14.7857 26.5 14.7857ZM26.5 12.4048C29.1244 12.4048 31.25 10.2738 31.25 7.64286C31.25 5.0119 29.1244 2.88095 26.5 2.88095C23.8756 2.88095 21.75 5.0119 21.75 7.64286C21.75 10.2738 23.8756 12.4048 26.5 12.4048Z" fill="#1D2445"/>
<path d="M17 49.5C17 46.9741 18.0009 44.5517 19.7825 42.7656C21.5641 40.9796 23.9804 39.9762 26.5 39.9762C29.0196 39.9762 31.4359 40.9796 33.2175 42.7656C34.9991 44.5517 36 46.9741 36 49.5H33.625C33.625 47.6056 32.8743 45.7888 31.5381 44.4492C30.2019 43.1097 28.3897 42.3571 26.5 42.3571C24.6103 42.3571 22.7981 43.1097 21.4619 44.4492C20.1257 45.7888 19.375 47.6056 19.375 49.5H17ZM26.5 38.7857C22.5634 38.7857 19.375 35.5893 19.375 31.6429C19.375 27.6964 22.5634 24.5 26.5 24.5C30.4366 24.5 33.625 27.6964 33.625 31.6429C33.625 35.5893 30.4366 38.7857 26.5 38.7857ZM26.5 36.4048C29.1244 36.4048 31.25 34.2738 31.25 31.6429C31.25 29.0119 29.1244 26.881 26.5 26.881C23.8756 26.881 21.75 29.0119 21.75 31.6429C21.75 34.2738 23.8756 36.4048 26.5 36.4048Z" fill="#1D2445"/>
</svg>
