<svg width="57" height="56" viewBox="0 0 57 56" fill="none" xmlns="http://www.w3.org/2000/svg">
<path d="M0.5 43.5C0.5 40.9741 1.50089 38.5517 3.28249 36.7656C5.06408 34.9796 7.48044 33.9762 10 33.9762C12.5196 33.9762 14.9359 34.9796 16.7175 36.7656C18.4991 38.5517 19.5 40.9741 19.5 43.5H17.125C17.125 41.6056 16.3743 39.7888 15.0381 38.4492C13.7019 37.1097 11.8897 36.3571 10 36.3571C8.11033 36.3571 6.29806 37.1097 4.96186 38.4492C3.62567 39.7888 2.875 41.6056 2.875 43.5H0.5ZM10 32.7857C6.06344 32.7857 2.875 29.5893 2.875 25.6429C2.875 21.6964 6.06344 18.5 10 18.5C13.9366 18.5 17.125 21.6964 17.125 25.6429C17.125 29.5893 13.9366 32.7857 10 32.7857ZM10 30.4048C12.6244 30.4048 14.75 28.2738 14.75 25.6429C14.75 23.0119 12.6244 20.881 10 20.881C7.37562 20.881 5.25 23.0119 5.25 25.6429C5.25 28.2738 7.37562 30.4048 10 30.4048Z" fill="#1D2445"/>
<path d="M34.5 43.5C34.5 40.9741 35.5009 38.5517 37.2825 36.7656C39.0641 34.9796 41.4804 33.9762 44 33.9762C46.5196 33.9762 48.9359 34.9796 50.7175 36.7656C52.4991 38.5517 53.5 40.9741 53.5 43.5H51.125C51.125 41.6056 50.3743 39.7888 49.0381 38.4492C47.7019 37.1097 45.8897 36.3571 44 36.3571C42.1103 36.3571 40.2981 37.1097 38.9619 38.4492C37.6257 39.7888 36.875 41.6056 36.875 43.5H34.5ZM44 32.7857C40.0634 32.7857 36.875 29.5893 36.875 25.6429C36.875 21.6964 40.0634 18.5 44 18.5C47.9366 18.5 51.125 21.6964 51.125 25.6429C51.125 29.5893 47.9366 32.7857 44 32.7857ZM44 30.4048C46.6244 30.4048 48.75 28.2738 48.75 25.6429C48.75 23.0119 46.6244 20.881 44 20.881C41.3756 20.881 39.25 23.0119 39.25 25.6429C39.25 28.2738 41.3756 30.4048 44 30.4048Z" fill="#1D2445"/>
<path d="M17.5 31.5C17.5 28.9741 18.5009 26.5517 20.2825 24.7656C22.0641 22.9796 24.4804 21.9762 27 21.9762C29.5196 21.9762 31.9359 22.9796 33.7175 24.7656C35.4991 26.5517 36.5 28.9741 36.5 31.5H34.125C34.125 29.6056 33.3743 27.7888 32.0381 26.4492C30.7019 25.1097 28.8897 24.3571 27 24.3571C25.1103 24.3571 23.2981 25.1097 21.9619 26.4492C20.6257 27.7888 19.875 29.6056 19.875 31.5H17.5ZM27 20.7857C23.0634 20.7857 19.875 17.5893 19.875 13.6429C19.875 9.69643 23.0634 6.5 27 6.5C30.9366 6.5 34.125 9.69643 34.125 13.6429C34.125 17.5893 30.9366 20.7857 27 20.7857ZM27 18.4048C29.6244 18.4048 31.75 16.2738 31.75 13.6429C31.75 11.0119 29.6244 8.88095 27 8.88095C24.3756 8.88095 22.25 11.0119 22.25 13.6429C22.25 16.2738 24.3756 18.4048 27 18.4048Z" fill="#1D2445"/>
<path d="M17.5 55.5C17.5 52.9741 18.5009 50.5517 20.2825 48.7656C22.0641 46.9796 24.4804 45.9762 27 45.9762C29.5196 45.9762 31.9359 46.9796 33.7175 48.7656C35.4991 50.5517 36.5 52.9741 36.5 55.5H34.125C34.125 53.6056 33.3743 51.7888 32.0381 50.4492C30.7019 49.1097 28.8897 48.3571 27 48.3571C25.1103 48.3571 23.2981 49.1097 21.9619 50.4492C20.6257 51.7888 19.875 53.6056 19.875 55.5H17.5ZM27 44.7857C23.0634 44.7857 19.875 41.5893 19.875 37.6429C19.875 33.6964 23.0634 30.5 27 30.5C30.9366 30.5 34.125 33.6964 34.125 37.6429C34.125 41.5893 30.9366 44.7857 27 44.7857ZM27 42.4048C29.6244 42.4048 31.75 40.2738 31.75 37.6429C31.75 35.0119 29.6244 32.881 27 32.881C24.3756 32.881 22.25 35.0119 22.25 37.6429C22.25 40.2738 24.3756 42.4048 27 42.4048Z" fill="#1D2445"/>
<path d="M51.8909 12.5V7.89091H56.5V5.10909H51.8909V0.5H49.1091V5.10909H44.5V7.89091H49.1091V12.5H51.8909Z" fill="#1D2445"/>
</svg>
