<svg width="40" height="40" viewBox="0 0 40 40" fill="none" xmlns="http://www.w3.org/2000/svg">
<path d="M0 20C0 8.95431 8.95431 0 20 0C31.0457 0 40 8.95431 40 20C40 31.0457 31.0457 40 20 40C8.95431 40 0 31.0457 0 20Z" fill="#CAF2A3"/>
<rect x="19" y="17.2524" width="2" height="15" fill="#1D2445"/>
<rect x="23.033" y="22.2524" width="2" height="5.7033" transform="rotate(45 23.033 22.2524)" fill="#1D2445"/>
<rect width="2" height="4.28228" transform="matrix(-0.707107 0.707107 0.707107 0.707107 17.4143 19.2524)" fill="#1D2445"/>
<path fill-rule="evenodd" clip-rule="evenodd" d="M20.602 8.44916L20 9.23934L19.398 8.44916L20 8L20.602 8.44916ZM20 10.5085C20.1689 10.6477 20.3677 10.8152 20.5895 11.0083C21.3175 11.6419 22.2857 12.5452 23.2509 13.6253C25.2274 15.8374 27 18.5815 27 21.1769C27 23.7979 25.348 26.0892 22.9148 27.1338L23.7108 28.9495C26.8077 27.6199 29 24.6566 29 21.1769C29 17.8035 26.7726 14.5789 24.7491 12.3143C23.7143 11.1561 22.6825 10.1942 21.9105 9.52217C21.5237 9.18556 21.2004 8.92016 20.9721 8.73766C20.8579 8.64637 20.7674 8.57573 20.7044 8.52718C20.6729 8.5029 20.6483 8.48414 20.6311 8.47108L20.6108 8.45578L20.605 8.45138L20.6031 8.44999C20.6029 8.44981 20.602 8.44916 20 9.23934C19.398 8.44916 19.3982 8.44897 19.398 8.44916L19.395 8.45138L19.3892 8.45578L19.3689 8.47108C19.3517 8.48414 19.3271 8.5029 19.2956 8.52718C19.2326 8.57573 19.1421 8.64637 19.0279 8.73766C18.7996 8.92016 18.4763 9.18556 18.0895 9.52217C17.3175 10.1942 16.2857 11.1561 15.2509 12.3143C13.2274 14.5789 11 17.8035 11 21.1769C11 24.6566 13.1923 27.6199 16.2892 28.9495L17.0852 27.1338C14.652 26.0892 13 23.7979 13 21.1769C13 18.5815 14.7726 15.8374 16.7491 13.6253C17.7143 12.5452 18.6825 11.6419 19.4105 11.0083C19.6323 10.8152 19.8311 10.6477 20 10.5085Z" fill="#1D2445"/>
</svg>
