<svg width="24" height="24" viewBox="0 0 24 24" fill="none" xmlns="http://www.w3.org/2000/svg">
<path fill-rule="evenodd" clip-rule="evenodd" d="M12 1.23934L12.602 0.449161L12 0L11.398 0.449161L11.395 0.451378L11.3892 0.455782L11.3689 0.471081C11.3517 0.484142 11.3271 0.502903 11.2956 0.52718C11.2326 0.575728 11.1421 0.646375 11.0279 0.73766C10.7996 0.92016 10.4763 1.18556 10.0895 1.52217C9.31753 2.19417 8.28574 3.15613 7.25086 4.3143C5.22738 6.57888 3 9.80348 3 13.1769C3 16.6566 5.19229 19.6199 8.2892 20.9495L9.08518 19.1338C6.65198 18.0892 5 15.7979 5 13.1769C5 10.5815 6.77262 7.83736 8.74914 5.62535C9.71426 4.54523 10.6825 3.64195 11.4105 3.00827C11.6323 2.81518 11.8311 2.64771 12 2.50848C12.1689 2.64771 12.3677 2.81518 12.5895 3.00827C13.3175 3.64195 14.2857 4.54523 15.2509 5.62535C17.2274 7.83736 19 10.5815 19 13.1769C19 15.7979 17.348 18.0892 14.9148 19.1338L15.7108 20.9495C18.8077 19.6199 21 16.6566 21 13.1769C21 9.80348 18.7726 6.57888 16.7491 4.3143C15.7143 3.15613 14.6825 2.19417 13.9105 1.52217C13.5237 1.18556 13.2004 0.92016 12.9721 0.73766C12.8579 0.646375 12.7674 0.575728 12.7044 0.52718C12.6729 0.502903 12.6483 0.484142 12.6311 0.471081L12.6108 0.455782L12.605 0.451378L12.6031 0.449995C12.6031 0.449995 12.602 0.449161 12 1.23934ZM12 1.23934L11.398 0.449161C11.398 0.449161 11.398 0.449161 12 1.23934Z" fill="currentColor"/>
<path d="M13 16.2854V9H11V12.8381L9.41431 11.2524L8.00009 12.6667L11 15.6666V24H13V19.1138L16.4472 15.6667L15.033 14.2524L13 16.2854Z" fill="currentColor"/>
</svg>
