<svg width="18" height="33" viewBox="0 0 18 33" fill="none" xmlns="http://www.w3.org/2000/svg">
<path d="M12.0154 15.7699L12.1928 15.8228C14.7902 16.5748 15.3271 18.724 13.3908 20.5796C9.92504 23.8909 5.87669 28.8669 2.37426 32.1428C2.3329 32.1815 2.28756 32.2157 2.23899 32.245C2.11334 32.3151 1.97226 32.3537 1.82789 32.3576C1.68351 32.3615 1.54017 32.3305 1.41019 32.2673C1.28021 32.2041 1.1675 32.1106 1.08174 31.9949C0.995986 31.8791 0.939761 31.7446 0.917907 31.6028C0.897572 31.4822 0.902173 31.3589 0.931428 31.2403C1.80247 28.1327 3.25229 23.3388 4.25489 20.2724C4.65733 19.0466 4.28526 18.4817 3.2269 18.2679C3.0599 18.2403 2.89446 18.2039 2.73126 18.1589C2.001 17.9395 1.38645 17.4427 1.02192 16.7771C0.657379 16.1114 0.572496 15.331 0.785819 14.6064C2.04674 10.3772 3.30767 6.14791 4.56859 1.91865C4.92758 0.714568 5.79402 0.262364 6.95598 0.590471C10.1892 1.50556 13.4228 2.433 16.614 3.48215C18.1601 3.98994 18.395 5.1736 17.3795 6.51176C15.5128 9.00908 13.6311 11.5019 11.763 14.011C11.6738 14.131 11.5878 14.254 11.502 14.3831C11.421 14.5021 11.3696 14.6387 11.3523 14.7816C11.3349 14.9244 11.352 15.0695 11.4021 15.2049C11.4522 15.3403 11.534 15.4621 11.6406 15.5603C11.7472 15.6585 11.8756 15.7304 12.0154 15.7699Z" fill="white" fill-opacity="0.4"/>
</svg>
