<svg width="32" height="60" viewBox="0 0 32 60" fill="none" xmlns="http://www.w3.org/2000/svg">
<path d="M20.9359 28.7385L21.2631 28.836C26.0532 30.2229 27.0432 34.1862 23.4723 37.6082C17.081 43.7148 9.61524 52.8913 3.1562 58.9327C3.07993 59.004 2.99632 59.0671 2.90673 59.1211C2.67503 59.2504 2.41486 59.3216 2.14861 59.3288C1.88236 59.336 1.61801 59.2788 1.37831 59.1623C1.13861 59.0458 0.93074 58.8733 0.772593 58.6598C0.614448 58.4463 0.51076 58.1982 0.470455 57.9367C0.432955 57.7143 0.44144 57.4869 0.495392 57.2684C2.10173 51.5373 4.77542 42.6966 6.62437 37.0417C7.36653 34.7812 6.68039 33.7394 4.7286 33.3452C4.42063 33.2942 4.11552 33.2271 3.81457 33.144C2.46785 32.7395 1.33453 31.8234 0.662264 30.5958C-0.00999912 29.3683 -0.166536 27.9291 0.226866 26.5928C2.55221 18.7934 4.87755 10.994 7.20289 3.19455C7.86493 0.974025 9.46278 0.14009 11.6056 0.745172C17.5681 2.43275 23.5314 4.14308 29.4165 6.07788C32.2678 7.01433 32.7009 9.19718 30.8281 11.665C27.3857 16.2704 23.9155 20.8675 20.4704 25.4947C20.3059 25.716 20.1473 25.9428 19.9892 26.181C19.8397 26.4005 19.7451 26.6523 19.7131 26.9158C19.6811 27.1792 19.7126 27.4468 19.805 27.6964C19.8974 27.9461 20.0481 28.1707 20.2447 28.3519C20.4413 28.533 20.6782 28.6655 20.9359 28.7385Z" fill="white" fill-opacity="0.4"/>
</svg>
