<svg width="42" height="39" viewBox="0 0 42 39" fill="none" xmlns="http://www.w3.org/2000/svg">
<path d="M20.2915 4.92196L21 5.63316L21.7085 4.92196C23.6891 2.93371 26.8931 1 30.45 1C36.2134 1 41 5.75621 41 12.6486C41 19.6417 37.2733 25.1944 32.7813 29.446C28.7991 33.2152 24.3133 35.8722 21.4906 37.5441C21.3209 37.6446 21.1572 37.7416 21 37.835C20.8428 37.7416 20.6791 37.6446 20.5094 37.5441C17.6867 35.8722 13.2009 33.2152 9.21866 29.446C4.72668 25.1944 1 19.6417 1 12.6486C1 5.76084 5.86204 1 11.55 1C15.1069 1 18.3109 2.93371 20.2915 4.92196Z" fill="url(#paint0_linear_424_10111)" />
<defs>
<linearGradient id="paint0_linear_424_10111" x1="0.399903" y1="29.8594" x2="43.3274" y2="3.34535" gradientUnits="userSpaceOnUse">
<stop stop-color="#6DDC91"/>
<stop offset="0.249794" stop-color="#8EE59C"/>
<stop offset="1" stop-color="#E8FDBC" stop-opacity="0.91"/>
</linearGradient>
</defs>
</svg>
