<svg width="24" height="24" viewBox="0 0 24 24" fill="none" xmlns="http://www.w3.org/2000/svg">
<g clip-path="url(#clip0_459_11342)">
<path d="M11.5 22.7279L4.87084 16.3639C3.55973 15.1052 2.66686 13.5016 2.30513 11.7558C1.94341 10.0099 2.12907 8.20035 2.83864 6.55582C3.54822 4.91129 4.74984 3.50569 6.29154 2.51677C7.83325 1.52784 9.64581 1 11.5 1C13.3542 1 15.1668 1.52784 16.7085 2.51677C18.2502 3.50569 19.4518 4.91129 20.1614 6.55582C20.8709 8.20035 21.0566 10.0099 20.6949 11.7558C20.3331 13.5016 19.4403 15.1052 18.1292 16.3639L11.5 22.7279ZM16.6563 14.9499C17.6759 13.9709 18.3703 12.7236 18.6516 11.3658C18.9329 10.0079 18.7885 8.60052 18.2366 7.32148C17.6846 6.04244 16.7501 4.94923 15.551 4.18009C14.3519 3.41095 12.9421 3.00043 11.5 3.00043C10.0579 3.00043 8.64814 3.41095 7.44905 4.18009C6.24996 4.94923 5.31536 6.04244 4.76345 7.32148C4.21154 8.60052 4.0671 10.0079 4.34839 11.3658C4.62968 12.7236 5.32407 13.9709 6.34375 14.9499L11.5 19.8999L16.6563 14.9499ZM11.5 11.9999C10.9475 11.9999 10.4176 11.7892 10.0269 11.4141C9.63616 11.0391 9.41667 10.5304 9.41667 9.99992C9.41667 9.46949 9.63616 8.96078 10.0269 8.58571C10.4176 8.21064 10.9475 7.99992 11.5 7.99992C12.0525 7.99992 12.5824 8.21064 12.9731 8.58571C13.3638 8.96078 13.5833 9.46949 13.5833 9.99992C13.5833 10.5304 13.3638 11.0391 12.9731 11.4141C12.5824 11.7892 12.0525 11.9999 11.5 11.9999Z" fill="#161E37"/>
</g>
<defs>
<clipPath id="clip0_459_11342">
<rect width="24" height="24" fill="white"/>
</clipPath>
</defs>
</svg>
