<svg width="206" height="51" viewBox="0 0 206 51" fill="none" xmlns="http://www.w3.org/2000/svg">
<path d="M21.728 7.03472C21.8911 6.83093 22.0709 6.61801 22.2686 6.39569C26.7434 1.36444 34.1179 3.74489 35.0381 4.20819C36.6095 4.99937 41.2768 6.95447 41.2768 14.6926C41.2768 23.5 36.6055 30.5 24.9971 37.7863L11.1498 45.9224M21.728 7.03472C18.2005 11.4431 22.511 11.5829 23.0326 10.2238C23.3304 9.44794 22.7832 8.24865 21.728 7.03472ZM21.728 7.03472C20.8495 6.02405 19.6188 5.00324 18.2304 4.20819C15.1745 2.4582 7.71104 2.42124 4.1513 6.39569C0.610738 10.3487 -0.21432 15.4738 3.0599 22.9113C5.26593 27.9224 11.7953 36.6759 23.7123 41.9224C29.6645 44.5429 30.2123 36.4224 34.7123 36.9224" stroke="currentColor" stroke-linecap="round"/>
<path d="M36.3218 33.0322C37.2348 32.1192 38.4356 31.5604 39.7109 31.444L39.7109 42.3985C38.4356 42.2821 37.2348 41.7233 36.3218 40.8104C35.2904 39.7789 34.7109 38.38 34.7109 36.9213C34.7109 35.4626 35.2904 34.0636 36.3218 33.0322Z" stroke="currentColor"/>
<path d="M40.2109 34.9213H42.2109" stroke="currentColor" stroke-linecap="round"/>
<path d="M40.2109 38.9213H42.2109" stroke="currentColor" stroke-linecap="round"/>
<path d="M60.2099 31.688C62.0645 31.688 63.6419 32.3467 64.9419 33.664C66.2592 34.9813 66.9179 36.5933 66.9179 38.5C66.9179 40.4067 66.2592 42.0187 64.9419 43.336C63.6419 44.6533 62.0645 45.312 60.2099 45.312C57.9045 45.312 56.1539 44.3587 54.9579 42.452V50.2H53.2419V32H54.9579V34.548C56.1539 32.6413 57.9045 31.688 60.2099 31.688ZM56.4399 42.166C57.4279 43.154 58.6412 43.648 60.0799 43.648C61.5185 43.648 62.7319 43.154 63.7199 42.166C64.7079 41.1433 65.2019 39.9213 65.2019 38.5C65.2019 37.0613 64.7079 35.848 63.7199 34.86C62.7319 33.8547 61.5185 33.352 60.0799 33.352C58.6412 33.352 57.4279 33.8547 56.4399 34.86C55.4519 35.848 54.9579 37.0613 54.9579 38.5C54.9579 39.9213 55.4519 41.1433 56.4399 42.166ZM80.8652 43.362C79.5305 44.662 77.9185 45.312 76.0292 45.312C74.1052 45.312 72.4845 44.662 71.1672 43.362C69.8498 42.0447 69.1912 40.424 69.1912 38.5C69.1912 36.576 69.8498 34.964 71.1672 33.664C72.4845 32.3467 74.1052 31.688 76.0292 31.688C77.9358 31.688 79.5478 32.3467 80.8652 33.664C82.1998 34.964 82.8672 36.576 82.8672 38.5C82.8672 40.4067 82.1998 42.0273 80.8652 43.362ZM72.3892 42.166C73.3772 43.154 74.5905 43.648 76.0292 43.648C77.4678 43.648 78.6812 43.154 79.6692 42.166C80.6572 41.1433 81.1512 39.9213 81.1512 38.5C81.1512 37.0613 80.6572 35.848 79.6692 34.86C78.6812 33.8547 77.4678 33.352 76.0292 33.352C74.5905 33.352 73.3772 33.8547 72.3892 34.86C71.4012 35.848 70.9072 37.0613 70.9072 38.5C70.9072 39.9213 71.4012 41.1433 72.3892 42.166ZM97.8849 42.79L101.083 32H102.851L98.8469 45H96.9749L93.6209 34.522L90.2669 45H88.3949L84.3909 32H86.1589L89.3569 42.79L92.7629 32H94.4789L97.8849 42.79ZM111.137 31.688C113.078 31.688 114.63 32.3727 115.791 33.742C116.987 35.094 117.585 36.6973 117.585 38.552C117.585 38.6387 117.568 38.9073 117.533 39.358H106.119C106.292 40.658 106.847 41.698 107.783 42.478C108.719 43.258 109.889 43.648 111.293 43.648C113.269 43.648 114.664 42.9113 115.479 41.438L116.987 42.322C116.415 43.258 115.626 43.9947 114.621 44.532C113.633 45.052 112.515 45.312 111.267 45.312C109.222 45.312 107.558 44.6707 106.275 43.388C104.992 42.1053 104.351 40.476 104.351 38.5C104.351 36.5413 104.984 34.9207 106.249 33.638C107.514 32.338 109.144 31.688 111.137 31.688ZM111.137 33.352C109.785 33.352 108.65 33.7507 107.731 34.548C106.83 35.3453 106.292 36.394 106.119 37.694H115.817C115.626 36.3073 115.098 35.2413 114.231 34.496C113.33 33.7333 112.298 33.352 111.137 33.352ZM122.231 32V34.158C123.028 32.5807 124.397 31.792 126.339 31.792V33.456C125.091 33.456 124.094 33.82 123.349 34.548C122.603 35.2587 122.231 36.3333 122.231 37.772V45H120.515V32H122.231ZM142.748 31.688C144.222 31.688 145.4 32.156 146.284 33.092C147.168 34.028 147.61 35.2933 147.61 36.888V45H145.894V36.888C145.894 35.7787 145.608 34.912 145.036 34.288C144.464 33.664 143.693 33.352 142.722 33.352C141.596 33.352 140.712 33.7247 140.07 34.47C139.429 35.2153 139.108 36.3247 139.108 37.798V45H137.392V36.888C137.392 35.7613 137.124 34.8947 136.586 34.288C136.049 33.664 135.304 33.352 134.35 33.352C133.258 33.352 132.357 33.7333 131.646 34.496C130.953 35.2587 130.606 36.3593 130.606 37.798V45H128.89V32H130.606V33.898C131.542 32.4247 132.868 31.688 134.584 31.688C136.474 31.688 137.791 32.4767 138.536 34.054C139.472 32.4767 140.876 31.688 142.748 31.688ZM162.309 34.548V32H164.025V45H162.309V42.452C161.113 44.3587 159.363 45.312 157.057 45.312C155.203 45.312 153.617 44.6533 152.299 43.336C150.999 42.0187 150.349 40.4067 150.349 38.5C150.349 36.5933 150.999 34.9813 152.299 33.664C153.617 32.3467 155.203 31.688 157.057 31.688C159.363 31.688 161.113 32.6413 162.309 34.548ZM153.547 42.166C154.535 43.154 155.749 43.648 157.187 43.648C158.626 43.648 159.839 43.154 160.827 42.166C161.815 41.1433 162.309 39.9213 162.309 38.5C162.309 37.0613 161.815 35.848 160.827 34.86C159.839 33.8547 158.626 33.352 157.187 33.352C155.749 33.352 154.535 33.8547 153.547 34.86C152.559 35.848 152.065 37.0613 152.065 38.5C152.065 39.9213 152.559 41.1433 153.547 42.166ZM174.749 32V33.664H171.005V41.542C171.005 42.2527 171.143 42.764 171.421 43.076C171.698 43.3707 172.114 43.5267 172.669 43.544C173.223 43.544 173.917 43.5267 174.749 43.492V45C172.894 45.2773 171.516 45.1473 170.615 44.61C169.731 44.0553 169.289 43.0327 169.289 41.542V33.664H166.559V32H169.289V28.88L171.005 28.36V32H174.749ZM183.08 45.312C181.121 45.312 179.492 44.662 178.192 43.362C176.892 42.0273 176.242 40.4067 176.242 38.5C176.242 36.576 176.892 34.964 178.192 33.664C179.492 32.3467 181.121 31.688 183.08 31.688C184.362 31.688 185.515 32 186.538 32.624C187.56 33.2307 188.306 34.054 188.774 35.094L187.37 35.9C187.023 35.12 186.46 34.5047 185.68 34.054C184.917 33.586 184.05 33.352 183.08 33.352C181.641 33.352 180.428 33.8547 179.44 34.86C178.452 35.848 177.958 37.0613 177.958 38.5C177.958 39.9213 178.452 41.1433 179.44 42.166C180.428 43.154 181.641 43.648 183.08 43.648C184.033 43.648 184.891 43.4227 185.654 42.972C186.434 42.5213 187.04 41.8973 187.474 41.1L188.904 41.932C188.366 42.972 187.578 43.7953 186.538 44.402C185.498 45.0087 184.345 45.312 183.08 45.312ZM197.651 31.688C199.211 31.688 200.451 32.1733 201.369 33.144C202.288 34.0973 202.747 35.3887 202.747 37.018V45H201.031V37.018C201.031 35.8567 200.719 34.9553 200.095 34.314C199.489 33.6727 198.622 33.352 197.495 33.352C196.195 33.352 195.164 33.7593 194.401 34.574C193.656 35.3887 193.283 36.5933 193.283 38.188V45H191.567V26.8H193.283V34.028C194.254 32.468 195.71 31.688 197.651 31.688Z" fill="currentColor"/>
<path d="M55.3709 9.588C55.3709 9.98667 55.5789 10.316 55.9949 10.576C56.4109 10.8187 57.0176 11.0527 57.8149 11.278C58.4216 11.4167 58.9503 11.564 59.4009 11.72C59.8516 11.876 60.3283 12.11 60.8309 12.422C61.3336 12.7167 61.7149 13.1153 61.9749 13.618C62.2523 14.1033 62.3823 14.6753 62.3649 15.334C62.3649 16.582 61.8796 17.5613 60.9089 18.272C59.9383 18.9827 58.7336 19.338 57.2949 19.338C56.0123 19.338 54.9116 19.0693 53.9929 18.532C53.0743 17.9947 52.4069 17.2493 51.9909 16.296L54.4089 14.892C54.8423 16.14 55.8043 16.764 57.2949 16.764C58.7683 16.764 59.5049 16.2787 59.5049 15.308C59.5049 14.5973 58.6816 14.0427 57.0349 13.644C56.4109 13.488 55.8823 13.332 55.4489 13.176C55.0329 13.02 54.5649 12.7947 54.0449 12.5C53.5423 12.2053 53.1523 11.8153 52.8749 11.33C52.6149 10.8447 52.4936 10.2813 52.5109 9.64C52.5109 8.444 52.9616 7.482 53.8629 6.754C54.7816 6.026 55.9169 5.662 57.2689 5.662C58.3436 5.662 59.2969 5.90467 60.1289 6.39C60.9783 6.858 61.6283 7.51667 62.0789 8.366L59.7129 9.692C59.2796 8.704 58.4649 8.21 57.2689 8.21C56.7143 8.21 56.2549 8.33133 55.8909 8.574C55.5443 8.81667 55.3709 9.15467 55.3709 9.588ZM71.7795 6V8.704H68.5555V14.944C68.5555 15.4813 68.6768 15.8713 68.9195 16.114C69.1622 16.3393 69.5175 16.4693 69.9855 16.504C70.4708 16.5213 71.0688 16.5127 71.7795 16.478V19C69.6302 19.26 68.0875 19.078 67.1515 18.454C66.2155 17.8127 65.7475 16.6427 65.7475 14.944V8.704H63.3555V6H65.7475V3.192L68.5555 2.36V6H71.7795ZM77.4612 6V8.184C78.1719 6.572 79.5066 5.766 81.4652 5.766V8.808C80.4079 8.73867 79.4719 8.99867 78.6572 9.588C77.8599 10.16 77.4612 11.1133 77.4612 12.448V19H74.6532V6H77.4612ZM94.1286 17.362C92.8112 18.6793 91.1906 19.338 89.2666 19.338C87.3426 19.338 85.7219 18.6793 84.4046 17.362C83.0699 16.0273 82.4026 14.4067 82.4026 12.5C82.4026 10.5933 83.0699 8.97267 84.4046 7.638C85.7219 6.32067 87.3426 5.662 89.2666 5.662C91.1906 5.662 92.8112 6.32067 94.1286 7.638C95.4632 8.97267 96.1306 10.5933 96.1306 12.5C96.1306 14.4067 95.4632 16.0273 94.1286 17.362ZM85.2106 12.5C85.2106 13.6787 85.6006 14.658 86.3806 15.438C87.1606 16.218 88.1226 16.608 89.2666 16.608C90.4106 16.608 91.3726 16.218 92.1526 15.438C92.9326 14.658 93.3226 13.6787 93.3226 12.5C93.3226 11.3213 92.9326 10.342 92.1526 9.562C91.3726 8.782 90.4106 8.392 89.2666 8.392C88.1226 8.392 87.1606 8.782 86.3806 9.562C85.6006 10.342 85.2106 11.3213 85.2106 12.5ZM113.066 5.662C114.539 5.662 115.726 6.13867 116.628 7.092C117.529 8.04533 117.98 9.328 117.98 10.94V19H115.172V11.122C115.172 10.238 114.946 9.54467 114.496 9.042C114.045 8.53933 113.43 8.288 112.65 8.288C111.766 8.288 111.072 8.58267 110.57 9.172C110.067 9.744 109.816 10.5933 109.816 11.72V19H107.008V11.122C107.008 10.2207 106.791 9.52733 106.358 9.042C105.942 8.53933 105.344 8.288 104.564 8.288C103.697 8.288 102.995 8.58267 102.458 9.172C101.938 9.76133 101.678 10.6107 101.678 11.72V19H98.8696V6H101.678V7.56C102.51 6.29467 103.749 5.662 105.396 5.662C107.06 5.662 108.29 6.34667 109.088 7.716C109.937 6.34667 111.263 5.662 113.066 5.662ZM133.743 13.696H123.395C123.603 14.6667 124.071 15.4207 124.799 15.958C125.544 16.4953 126.463 16.764 127.555 16.764C129.028 16.764 130.146 16.2267 130.909 15.152L133.223 16.504C131.958 18.3933 130.06 19.338 127.529 19.338C125.432 19.338 123.724 18.6967 122.407 17.414C121.107 16.114 120.457 14.476 120.457 12.5C120.457 10.576 121.098 8.95533 122.381 7.638C123.646 6.32067 125.293 5.662 127.321 5.662C129.21 5.662 130.77 6.32933 132.001 7.664C133.232 8.99867 133.847 10.6193 133.847 12.526C133.847 12.8727 133.812 13.2627 133.743 13.696ZM123.369 11.408H131.013C130.822 10.3853 130.389 9.59667 129.713 9.042C129.054 8.48733 128.248 8.21 127.295 8.21C126.255 8.21 125.388 8.496 124.695 9.068C124.002 9.64 123.56 10.42 123.369 11.408ZM149 13.696H138.652C138.86 14.6667 139.328 15.4207 140.056 15.958C140.801 16.4953 141.72 16.764 142.812 16.764C144.285 16.764 145.403 16.2267 146.166 15.152L148.48 16.504C147.214 18.3933 145.316 19.338 142.786 19.338C140.688 19.338 138.981 18.6967 137.664 17.414C136.364 16.114 135.714 14.476 135.714 12.5C135.714 10.576 136.355 8.95533 137.638 7.638C138.903 6.32067 140.55 5.662 142.578 5.662C144.467 5.662 146.027 6.32933 147.258 7.664C148.488 8.99867 149.104 10.6193 149.104 12.526C149.104 12.8727 149.069 13.2627 149 13.696ZM138.626 11.408H146.27C146.079 10.3853 145.646 9.59667 144.97 9.042C144.311 8.48733 143.505 8.21 142.552 8.21C141.512 8.21 140.645 8.496 139.952 9.068C139.258 9.64 138.816 10.42 138.626 11.408Z" fill="currentColor"/>
</svg>
