<svg width="173" height="51" viewBox="0 0 173 51" fill="none" xmlns="http://www.w3.org/2000/svg">
<path d="M9.39347 31.688C11.2481 31.688 12.8255 32.3467 14.1255 33.664C15.4428 34.9813 16.1015 36.5933 16.1015 38.5C16.1015 40.4067 15.4428 42.0187 14.1255 43.336C12.8255 44.6533 11.2481 45.312 9.39347 45.312C7.08814 45.312 5.33747 44.3587 4.14147 42.452V50.2H2.42547V32H4.14147V34.548C5.33747 32.6413 7.08814 31.688 9.39347 31.688ZM5.62347 42.166C6.61147 43.154 7.8248 43.648 9.26347 43.648C10.7021 43.648 11.9155 43.154 12.9035 42.166C13.8915 41.1433 14.3855 39.9213 14.3855 38.5C14.3855 37.0613 13.8915 35.848 12.9035 34.86C11.9155 33.8547 10.7021 33.352 9.26347 33.352C7.8248 33.352 6.61147 33.8547 5.62347 34.86C4.63547 35.848 4.14147 37.0613 4.14147 38.5C4.14147 39.9213 4.63547 41.1433 5.62347 42.166ZM30.0488 43.362C28.7141 44.662 27.1021 45.312 25.2128 45.312C23.2888 45.312 21.6681 44.662 20.3508 43.362C19.0334 42.0447 18.3748 40.424 18.3748 38.5C18.3748 36.576 19.0334 34.964 20.3508 33.664C21.6681 32.3467 23.2888 31.688 25.2128 31.688C27.1194 31.688 28.7314 32.3467 30.0488 33.664C31.3834 34.964 32.0508 36.576 32.0508 38.5C32.0508 40.4067 31.3834 42.0273 30.0488 43.362ZM21.5728 42.166C22.5608 43.154 23.7741 43.648 25.2128 43.648C26.6514 43.648 27.8648 43.154 28.8528 42.166C29.8408 41.1433 30.3348 39.9213 30.3348 38.5C30.3348 37.0613 29.8408 35.848 28.8528 34.86C27.8648 33.8547 26.6514 33.352 25.2128 33.352C23.7741 33.352 22.5608 33.8547 21.5728 34.86C20.5848 35.848 20.0908 37.0613 20.0908 38.5C20.0908 39.9213 20.5848 41.1433 21.5728 42.166ZM47.0685 42.79L50.2665 32H52.0345L48.0305 45H46.1585L42.8045 34.522L39.4505 45H37.5785L33.5745 32H35.3425L38.5405 42.79L41.9465 32H43.6625L47.0685 42.79ZM60.3205 31.688C62.2619 31.688 63.8132 32.3727 64.9745 33.742C66.1705 35.094 66.7685 36.6973 66.7685 38.552C66.7685 38.6387 66.7512 38.9073 66.7165 39.358H55.3025C55.4759 40.658 56.0305 41.698 56.9665 42.478C57.9025 43.258 59.0725 43.648 60.4765 43.648C62.4525 43.648 63.8479 42.9113 64.6625 41.438L66.1705 42.322C65.5985 43.258 64.8099 43.9947 63.8045 44.532C62.8165 45.052 61.6985 45.312 60.4505 45.312C58.4052 45.312 56.7412 44.6707 55.4585 43.388C54.1759 42.1053 53.5345 40.476 53.5345 38.5C53.5345 36.5413 54.1672 34.9207 55.4325 33.638C56.6979 32.338 58.3272 31.688 60.3205 31.688ZM60.3205 33.352C58.9685 33.352 57.8332 33.7507 56.9145 34.548C56.0132 35.3453 55.4759 36.394 55.3025 37.694H65.0005C64.8099 36.3073 64.2812 35.2413 63.4145 34.496C62.5132 33.7333 61.4819 33.352 60.3205 33.352ZM71.4141 32V34.158C72.2115 32.5807 73.5808 31.792 75.5221 31.792V33.456C74.2741 33.456 73.2775 33.82 72.5321 34.548C71.7868 35.2587 71.4141 36.3333 71.4141 37.772V45H69.6981V32H71.4141ZM91.9319 31.688C93.4052 31.688 94.5839 32.156 95.4679 33.092C96.3519 34.028 96.7939 35.2933 96.7939 36.888V45H95.0779V36.888C95.0779 35.7787 94.7919 34.912 94.2199 34.288C93.6479 33.664 92.8766 33.352 91.9059 33.352C90.7792 33.352 89.8952 33.7247 89.2539 34.47C88.6126 35.2153 88.2919 36.3247 88.2919 37.798V45H86.5759V36.888C86.5759 35.7613 86.3072 34.8947 85.7699 34.288C85.2326 33.664 84.4872 33.352 83.5339 33.352C82.4419 33.352 81.5406 33.7333 80.8299 34.496C80.1366 35.2587 79.7899 36.3593 79.7899 37.798V45H78.0739V32H79.7899V33.898C80.7259 32.4247 82.0519 31.688 83.7679 31.688C85.6572 31.688 86.9746 32.4767 87.7199 34.054C88.6559 32.4767 90.0599 31.688 91.9319 31.688ZM111.493 34.548V32H113.209V45H111.493V42.452C110.297 44.3587 108.546 45.312 106.241 45.312C104.386 45.312 102.8 44.6533 101.483 43.336C100.183 42.0187 99.533 40.4067 99.533 38.5C99.533 36.5933 100.183 34.9813 101.483 33.664C102.8 32.3467 104.386 31.688 106.241 31.688C108.546 31.688 110.297 32.6413 111.493 34.548ZM102.731 42.166C103.719 43.154 104.932 43.648 106.371 43.648C107.81 43.648 109.023 43.154 110.011 42.166C110.999 41.1433 111.493 39.9213 111.493 38.5C111.493 37.0613 110.999 35.848 110.011 34.86C109.023 33.8547 107.81 33.352 106.371 33.352C104.932 33.352 103.719 33.8547 102.731 34.86C101.743 35.848 101.249 37.0613 101.249 38.5C101.249 39.9213 101.743 41.1433 102.731 42.166ZM123.932 32V33.664H120.188V41.542C120.188 42.2527 120.327 42.764 120.604 43.076C120.882 43.3707 121.298 43.5267 121.852 43.544C122.407 43.544 123.1 43.5267 123.932 43.492V45C122.078 45.2773 120.7 45.1473 119.798 44.61C118.914 44.0553 118.472 43.0327 118.472 41.542V33.664H115.742V32H118.472V28.88L120.188 28.36V32H123.932ZM132.263 45.312C130.304 45.312 128.675 44.662 127.375 43.362C126.075 42.0273 125.425 40.4067 125.425 38.5C125.425 36.576 126.075 34.964 127.375 33.664C128.675 32.3467 130.304 31.688 132.263 31.688C133.546 31.688 134.698 32 135.721 32.624C136.744 33.2307 137.489 34.054 137.957 35.094L136.553 35.9C136.206 35.12 135.643 34.5047 134.863 34.054C134.1 33.586 133.234 33.352 132.263 33.352C130.824 33.352 129.611 33.8547 128.623 34.86C127.635 35.848 127.141 37.0613 127.141 38.5C127.141 39.9213 127.635 41.1433 128.623 42.166C129.611 43.154 130.824 43.648 132.263 43.648C133.216 43.648 134.074 43.4227 134.837 42.972C135.617 42.5213 136.224 41.8973 136.657 41.1L138.087 41.932C137.55 42.972 136.761 43.7953 135.721 44.402C134.681 45.0087 133.528 45.312 132.263 45.312ZM146.835 31.688C148.395 31.688 149.634 32.1733 150.553 33.144C151.472 34.0973 151.931 35.3887 151.931 37.018V45H150.215V37.018C150.215 35.8567 149.903 34.9553 149.279 34.314C148.672 33.6727 147.806 33.352 146.679 33.352C145.379 33.352 144.348 33.7593 143.585 34.574C142.84 35.3887 142.467 36.5933 142.467 38.188V45H140.751V26.8H142.467V34.028C143.438 32.468 144.894 31.688 146.835 31.688Z" fill="currentColor"/>
<path d="M4.76547 9.588C4.76547 9.98667 4.97347 10.316 5.38947 10.576C5.80547 10.8187 6.41214 11.0527 7.20947 11.278C7.81614 11.4167 8.3448 11.564 8.79547 11.72C9.24614 11.876 9.7228 12.11 10.2255 12.422C10.7281 12.7167 11.1095 13.1153 11.3695 13.618C11.6468 14.1033 11.7768 14.6753 11.7595 15.334C11.7595 16.582 11.2741 17.5613 10.3035 18.272C9.3328 18.9827 8.12814 19.338 6.68947 19.338C5.4068 19.338 4.30614 19.0693 3.38747 18.532C2.4688 17.9947 1.80147 17.2493 1.38547 16.296L3.80347 14.892C4.2368 16.14 5.1988 16.764 6.68947 16.764C8.1628 16.764 8.89947 16.2787 8.89947 15.308C8.89947 14.5973 8.07614 14.0427 6.42947 13.644C5.80547 13.488 5.2768 13.332 4.84347 13.176C4.42747 13.02 3.95947 12.7947 3.43947 12.5C2.9368 12.2053 2.5468 11.8153 2.26947 11.33C2.00947 10.8447 1.88814 10.2813 1.90547 9.64C1.90547 8.444 2.35614 7.482 3.25747 6.754C4.17614 6.026 5.31147 5.662 6.66347 5.662C7.73814 5.662 8.69147 5.90467 9.52347 6.39C10.3728 6.858 11.0228 7.51667 11.4735 8.366L9.10747 9.692C8.67414 8.704 7.85947 8.21 6.66347 8.21C6.1088 8.21 5.64947 8.33133 5.28547 8.574C4.9388 8.81667 4.76547 9.15467 4.76547 9.588ZM21.174 6V8.704H17.95V14.944C17.95 15.4813 18.0714 15.8713 18.314 16.114C18.5567 16.3393 18.912 16.4693 19.38 16.504C19.8654 16.5213 20.4634 16.5127 21.174 16.478V19C19.0247 19.26 17.482 19.078 16.546 18.454C15.61 17.8127 15.142 16.6427 15.142 14.944V8.704H12.75V6H15.142V3.192L17.95 2.36V6H21.174ZM26.8558 6V8.184C27.5664 6.572 28.9011 5.766 30.8598 5.766V8.808C29.8024 8.73867 28.8664 8.99867 28.0518 9.588C27.2544 10.16 26.8558 11.1133 26.8558 12.448V19H24.0478V6H26.8558ZM43.5231 17.362C42.2058 18.6793 40.5851 19.338 38.6611 19.338C36.7371 19.338 35.1164 18.6793 33.7991 17.362C32.4644 16.0273 31.7971 14.4067 31.7971 12.5C31.7971 10.5933 32.4644 8.97267 33.7991 7.638C35.1164 6.32067 36.7371 5.662 38.6611 5.662C40.5851 5.662 42.2058 6.32067 43.5231 7.638C44.8578 8.97267 45.5251 10.5933 45.5251 12.5C45.5251 14.4067 44.8578 16.0273 43.5231 17.362ZM34.6051 12.5C34.6051 13.6787 34.9951 14.658 35.7751 15.438C36.5551 16.218 37.5171 16.608 38.6611 16.608C39.8051 16.608 40.7671 16.218 41.5471 15.438C42.3271 14.658 42.7171 13.6787 42.7171 12.5C42.7171 11.3213 42.3271 10.342 41.5471 9.562C40.7671 8.782 39.8051 8.392 38.6611 8.392C37.5171 8.392 36.5551 8.782 35.7751 9.562C34.9951 10.342 34.6051 11.3213 34.6051 12.5ZM62.4602 5.662C63.9335 5.662 65.1208 6.13867 66.0222 7.092C66.9235 8.04533 67.3742 9.328 67.3742 10.94V19H64.5662V11.122C64.5662 10.238 64.3408 9.54467 63.8902 9.042C63.4395 8.53933 62.8242 8.288 62.0442 8.288C61.1602 8.288 60.4668 8.58267 59.9642 9.172C59.4615 9.744 59.2102 10.5933 59.2102 11.72V19H56.4022V11.122C56.4022 10.2207 56.1855 9.52733 55.7522 9.042C55.3362 8.53933 54.7382 8.288 53.9582 8.288C53.0915 8.288 52.3895 8.58267 51.8522 9.172C51.3322 9.76133 51.0722 10.6107 51.0722 11.72V19H48.2642V6H51.0722V7.56C51.9042 6.29467 53.1435 5.662 54.7902 5.662C56.4542 5.662 57.6848 6.34667 58.4822 7.716C59.3315 6.34667 60.6575 5.662 62.4602 5.662ZM83.1374 13.696H72.7894C72.9974 14.6667 73.4654 15.4207 74.1934 15.958C74.9387 16.4953 75.8574 16.764 76.9494 16.764C78.4227 16.764 79.5407 16.2267 80.3034 15.152L82.6174 16.504C81.3521 18.3933 79.4541 19.338 76.9234 19.338C74.8261 19.338 73.1187 18.6967 71.8014 17.414C70.5014 16.114 69.8514 14.476 69.8514 12.5C69.8514 10.576 70.4927 8.95533 71.7754 7.638C73.0407 6.32067 74.6874 5.662 76.7154 5.662C78.6047 5.662 80.1647 6.32933 81.3954 7.664C82.6261 8.99867 83.2414 10.6193 83.2414 12.526C83.2414 12.8727 83.2067 13.2627 83.1374 13.696ZM72.7634 11.408H80.4074C80.2167 10.3853 79.7834 9.59667 79.1074 9.042C78.4487 8.48733 77.6427 8.21 76.6894 8.21C75.6494 8.21 74.7827 8.496 74.0894 9.068C73.3961 9.64 72.9541 10.42 72.7634 11.408ZM98.394 13.696H88.046C88.254 14.6667 88.722 15.4207 89.45 15.958C90.1954 16.4953 91.114 16.764 92.206 16.764C93.6794 16.764 94.7974 16.2267 95.56 15.152L97.874 16.504C96.6087 18.3933 94.7107 19.338 92.18 19.338C90.0827 19.338 88.3754 18.6967 87.058 17.414C85.758 16.114 85.108 14.476 85.108 12.5C85.108 10.576 85.7494 8.95533 87.032 7.638C88.2974 6.32067 89.944 5.662 91.972 5.662C93.8614 5.662 95.4214 6.32933 96.652 7.664C97.8827 8.99867 98.498 10.6193 98.498 12.526C98.498 12.8727 98.4634 13.2627 98.394 13.696ZM88.02 11.408H95.664C95.4734 10.3853 95.04 9.59667 94.364 9.042C93.7054 8.48733 92.8994 8.21 91.946 8.21C90.906 8.21 90.0394 8.496 89.346 9.068C88.6527 9.64 88.2107 10.42 88.02 11.408Z" fill="currentColor"/>
</svg>
