<svg width="387" height="226" viewBox="0 0 387 226" fill="none" xmlns="http://www.w3.org/2000/svg">
<path d="M233.855 1C262.412 1 285.555 24.6486 285.555 57.7568C285.555 123.973 215.055 161.811 191.555 176C168.055 161.811 97.5547 123.973 97.5547 57.7568C97.5547 24.6486 121.055 1 149.255 1C166.739 1 182.155 10.4595 191.555 19.9189C200.955 10.4595 216.371 1 233.855 1Z" fill="url(#paint0_linear_394_10089)"/>
<path d="M1 225C42.1667 215.5 169.453 189.578 211.053 160.378C263.053 123.878 282.053 101.878 281.053 59.3778C280.053 16.8778 261.053 9.37784 257.053 6.87784C253.053 4.37784 219.053 -6.12216 198.553 16.8778C178.053 39.8778 199.553 40.8779 202.053 34.3779C204.553 27.8779 194.053 14.8778 180.053 6.87784C166.053 -1.1221 128.553 -3.62222 115.553 16.8778C102.553 37.3779 95.5527 58.3779 110.553 92.3779C125.553 126.378 173.553 164.878 216.553 187.878C259.553 210.878 275.18 215.5 299.68 199.5C324.18 183.5 320.02 152 350.5 153" stroke="white" stroke-width="2"/>
<mask id="path-3-inside-1_394_10089" fill="white">
<path d="M362 166C360.293 166 358.602 165.664 357.025 165.01C355.448 164.357 354.015 163.4 352.808 162.192C351.6 160.985 350.643 159.552 349.99 157.975C349.336 156.398 349 154.707 349 153C349 151.293 349.336 149.602 349.99 148.025C350.643 146.448 351.6 145.015 352.808 143.808C354.015 142.6 355.448 141.643 357.025 140.99C358.602 140.336 360.293 140 362 140L362 153L362 166Z"/>
</mask>
<path d="M362 166C360.293 166 358.602 165.664 357.025 165.01C355.448 164.357 354.015 163.4 352.808 162.192C351.6 160.985 350.643 159.552 349.99 157.975C349.336 156.398 349 154.707 349 153C349 151.293 349.336 149.602 349.99 148.025C350.643 146.448 351.6 145.015 352.808 143.808C354.015 142.6 355.448 141.643 357.025 140.99C358.602 140.336 360.293 140 362 140L362 153L362 166Z" fill="white" stroke="white" stroke-width="2" mask="url(#path-3-inside-1_394_10089)"/>
<path d="M356 149H367.5" stroke="white" stroke-width="3" stroke-linecap="round"/>
<path d="M356 156H367.5" stroke="white" stroke-width="3" stroke-linecap="round"/>
<defs>
<linearGradient id="paint0_linear_394_10089" x1="99.3447" y1="134.984" x2="291.756" y2="16.4331" gradientUnits="userSpaceOnUse">
<stop stop-color="#6DDC91"/>
<stop offset="0.249794" stop-color="#8EE59C"/>
<stop offset="1" stop-color="#E8FDBC" stop-opacity="0.91"/>
</linearGradient>
</defs>
</svg>
