<svg width="24" height="24" viewBox="0 0 24 24" fill="none" xmlns="http://www.w3.org/2000/svg">
<path d="M12.0001 8.5L14.1161 13.588L19.6081 14.028L15.4241 17.612L16.7021 22.972L12.0001 20.1L7.29809 22.972L8.57609 17.612L4.39209 14.028L9.88409 13.588L12.0001 8.5ZM12.0001 13.707L11.2611 15.484L9.34509 15.637L10.8051 16.888L10.3581 18.759L12.0001 17.756L13.6411 18.759L13.1951 16.889L14.6541 15.637L12.7391 15.484L12.0001 13.707ZM8.00009 2V11H6.00009V2H8.00009ZM18.0001 2V11H16.0001V2H18.0001ZM13.0001 2V7H11.0001V2H13.0001Z" fill="currentColor"/>
</svg>
