<svg width="56" height="56" viewBox="0 0 56 56" fill="none" xmlns="http://www.w3.org/2000/svg">
<path d="M20 38C20 35.8783 20.8429 33.8434 22.3431 32.3431C23.8434 30.8429 25.8783 30 28 30C30.1217 30 32.1566 30.8429 33.6569 32.3431C35.1571 33.8434 36 35.8783 36 38H34C34 36.4087 33.3679 34.8826 32.2426 33.7574C31.1174 32.6321 29.5913 32 28 32C26.4087 32 24.8826 32.6321 23.7574 33.7574C22.6321 34.8826 22 36.4087 22 38H20ZM28 29C24.685 29 22 26.315 22 23C22 19.685 24.685 17 28 17C31.315 17 34 19.685 34 23C34 26.315 31.315 29 28 29ZM28 27C30.21 27 32 25.21 32 23C32 20.79 30.21 19 28 19C25.79 19 24 20.79 24 23C24 25.21 25.79 27 28 27Z" fill="currentColor"/>
</svg>
