<svg width="56" height="56" viewBox="0 0 56 56" fill="none" xmlns="http://www.w3.org/2000/svg">
<path d="M20 38C20 35.8783 20.8429 33.8434 22.3431 32.3431C23.8434 30.8429 25.8783 30 28 30C30.1217 30 32.1566 30.8429 33.6569 32.3431C35.1571 33.8434 36 35.8783 36 38H34C34 36.4087 33.3679 34.8826 32.2426 33.7574C31.1174 32.6321 29.5913 32 28 32C26.4087 32 24.8826 32.6321 23.7574 33.7574C22.6321 34.8826 22 36.4087 22 38H20ZM28 29C24.685 29 22 26.315 22 23C22 19.685 24.685 17 28 17C31.315 17 34 19.685 34 23C34 26.315 31.315 29 28 29ZM28 27C30.21 27 32 25.21 32 23C32 20.79 30.21 19 28 19C25.79 19 24 20.79 24 23C24 25.21 25.79 27 28 27Z" fill="currentColor"/>
<path d="M38 38C38 35.8783 38.8429 33.8434 40.3431 32.3431C41.8434 30.8429 43.8783 30 46 30C48.1217 30 50.1566 30.8429 51.6569 32.3431C53.1571 33.8434 54 35.8783 54 38H52C52 36.4087 51.3679 34.8826 50.2426 33.7574C49.1174 32.6321 47.5913 32 46 32C44.4087 32 42.8826 32.6321 41.7574 33.7574C40.6321 34.8826 40 36.4087 40 38H38ZM46 29C42.685 29 40 26.315 40 23C40 19.685 42.685 17 46 17C49.315 17 52 19.685 52 23C52 26.315 49.315 29 46 29ZM46 27C48.21 27 50 25.21 50 23C50 20.79 48.21 19 46 19C43.79 19 42 20.79 42 23C42 25.21 43.79 27 46 27Z" fill="currentColor"/>
<path d="M2 38C2 35.8783 2.84285 33.8434 4.34315 32.3431C5.84344 30.8429 7.87827 30 10 30C12.1217 30 14.1566 30.8429 15.6569 32.3431C17.1571 33.8434 18 35.8783 18 38H16C16 36.4087 15.3679 34.8826 14.2426 33.7574C13.1174 32.6321 11.5913 32 10 32C8.4087 32 6.88258 32.6321 5.75736 33.7574C4.63214 34.8826 4 36.4087 4 38H2ZM10 29C6.685 29 4 26.315 4 23C4 19.685 6.685 17 10 17C13.315 17 16 19.685 16 23C16 26.315 13.315 29 10 29ZM10 27C12.21 27 14 25.21 14 23C14 20.79 12.21 19 10 19C7.79 19 6 20.79 6 23C6 25.21 7.79 27 10 27Z" fill="currentColor"/>
</svg>
