<svg width="56" height="56" viewBox="0 0 56 56" fill="none" xmlns="http://www.w3.org/2000/svg">
<path d="M11 38C11 35.8783 11.8429 33.8434 13.3431 32.3431C14.8434 30.8429 16.8783 30 19 30C21.1217 30 23.1566 30.8429 24.6569 32.3431C26.1571 33.8434 27 35.8783 27 38H25C25 36.4087 24.3679 34.8826 23.2426 33.7574C22.1174 32.6321 20.5913 32 19 32C17.4087 32 15.8826 32.6321 14.7574 33.7574C13.6321 34.8826 13 36.4087 13 38H11ZM19 29C15.685 29 13 26.315 13 23C13 19.685 15.685 17 19 17C22.315 17 25 19.685 25 23C25 26.315 22.315 29 19 29ZM19 27C21.21 27 23 25.21 23 23C23 20.79 21.21 19 19 19C16.79 19 15 20.79 15 23C15 25.21 16.79 27 19 27Z" fill="currentColor"/>
<path d="M29 38C29 35.8783 29.8429 33.8434 31.3431 32.3431C32.8434 30.8429 34.8783 30 37 30C39.1217 30 41.1566 30.8429 42.6569 32.3431C44.1571 33.8434 45 35.8783 45 38H43C43 36.4087 42.3679 34.8826 41.2426 33.7574C40.1174 32.6321 38.5913 32 37 32C35.4087 32 33.8826 32.6321 32.7574 33.7574C31.6321 34.8826 31 36.4087 31 38H29ZM37 29C33.685 29 31 26.315 31 23C31 19.685 33.685 17 37 17C40.315 17 43 19.685 43 23C43 26.315 40.315 29 37 29ZM37 27C39.21 27 41 25.21 41 23C41 20.79 39.21 19 37 19C34.79 19 33 20.79 33 23C33 25.21 34.79 27 37 27Z" fill="currentColor"/>
</svg>
