<svg width="56" height="56" viewBox="0 0 56 56" fill="none" xmlns="http://www.w3.org/2000/svg">
<path d="M20 50C20 47.8783 20.8429 45.8434 22.3431 44.3431C23.8434 42.8429 25.8783 42 28 42C30.1217 42 32.1566 42.8429 33.6569 44.3431C35.1571 45.8434 36 47.8783 36 50H34C34 48.4087 33.3679 46.8826 32.2426 45.7574C31.1174 44.6321 29.5913 44 28 44C26.4087 44 24.8826 44.6321 23.7574 45.7574C22.6321 46.8826 22 48.4087 22 50H20ZM28 41C24.685 41 22 38.315 22 35C22 31.685 24.685 29 28 29C31.315 29 34 31.685 34 35C34 38.315 31.315 41 28 41ZM28 39C30.21 39 32 37.21 32 35C32 32.79 30.21 31 28 31C25.79 31 24 32.79 24 35C24 37.21 25.79 39 28 39Z" fill="currentColor"/>
<path d="M36 41C36 38.8783 36.8429 36.8434 38.3431 35.3431C39.8434 33.8429 41.8783 33 44 33C46.1217 33 48.1566 33.8429 49.6569 35.3431C51.1571 36.8434 52 38.8783 52 41H50C50 39.4087 49.3679 37.8826 48.2426 36.7574C47.1174 35.6321 45.5913 35 44 35C42.4087 35 40.8826 35.6321 39.7574 36.7574C38.6321 37.8826 38 39.4087 38 41H36ZM44 32C40.685 32 38 29.315 38 26C38 22.685 40.685 20 44 20C47.315 20 50 22.685 50 26C50 29.315 47.315 32 44 32ZM44 30C46.21 30 48 28.21 48 26C48 23.79 46.21 22 44 22C41.79 22 40 23.79 40 26C40 28.21 41.79 30 44 30Z" fill="currentColor"/>
<path d="M4 41C4 38.8783 4.84285 36.8434 6.34315 35.3431C7.84344 33.8429 9.87827 33 12 33C14.1217 33 16.1566 33.8429 17.6569 35.3431C19.1571 36.8434 20 38.8783 20 41H18C18 39.4087 17.3679 37.8826 16.2426 36.7574C15.1174 35.6321 13.5913 35 12 35C10.4087 35 8.88258 35.6321 7.75736 36.7574C6.63214 37.8826 6 39.4087 6 41H4ZM12 32C8.685 32 6 29.315 6 26C6 22.685 8.685 20 12 20C15.315 20 18 22.685 18 26C18 29.315 15.315 32 12 32ZM12 30C14.21 30 16 28.21 16 26C16 23.79 14.21 22 12 22C9.79 22 8 23.79 8 26C8 28.21 9.79 30 12 30Z" fill="currentColor"/>
<path d="M20 27C20 24.8783 20.8429 22.8434 22.3431 21.3431C23.8434 19.8429 25.8783 19 28 19C30.1217 19 32.1566 19.8429 33.6569 21.3431C35.1571 22.8434 36 24.8783 36 27H34C34 25.4087 33.3679 23.8826 32.2426 22.7574C31.1174 21.6321 29.5913 21 28 21C26.4087 21 24.8826 21.6321 23.7574 22.7574C22.6321 23.8826 22 25.4087 22 27H20ZM28 18C24.685 18 22 15.315 22 12C22 8.685 24.685 6 28 6C31.315 6 34 8.685 34 12C34 15.315 31.315 18 28 18ZM28 16C30.21 16 32 14.21 32 12C32 9.79 30.21 8 28 8C25.79 8 24 9.79 24 12C24 14.21 25.79 16 28 16Z" fill="currentColor"/>
<path d="M44 8V2H46V8H52V10H46V16H44V10H38V8H44Z" fill="currentColor"/>
</svg>
