<svg width="24" height="24" viewBox="0 0 24 24" fill="none" xmlns="http://www.w3.org/2000/svg">
<path d="M3.16104 4.46904C4.32111 3.30877 5.87704 2.63013 7.51664 2.56929C9.15624 2.50846 10.7582 3.06993 12.001 4.14104C13.2428 3.07171 14.8426 2.51087 16.4803 2.5708C18.1179 2.63074 19.6724 3.30701 20.8327 4.46425C21.993 5.62148 22.6733 7.17427 22.7375 8.81173C22.8018 10.4492 22.2451 12.0505 21.179 13.295L13.414 21.085C13.0573 21.4419 12.5788 21.6507 12.0746 21.6697C11.5703 21.6886 11.0775 21.5162 10.695 21.187L10.585 21.086L2.82104 13.295C1.75553 12.0516 1.19862 10.4517 1.26166 8.81542C1.32469 7.1791 2.00303 5.62686 3.16104 4.46904ZM4.57504 5.88304C3.75728 6.70103 3.2859 7.80249 3.25871 8.95881C3.23152 10.1151 3.65063 11.2375 4.42904 12.093L4.57504 12.247L12 19.672L17.303 14.368L13.768 10.833L12.708 11.893C12.4295 12.1717 12.0988 12.3928 11.7348 12.5436C11.3709 12.6945 10.9807 12.7722 10.5868 12.7723C9.79103 12.7725 9.02783 12.4566 8.46504 11.894C7.90225 11.3315 7.58598 10.5685 7.58579 9.77275C7.5856 8.97703 7.90152 8.21383 8.46404 7.65104L10.566 5.54804C9.72951 4.88042 8.68245 4.53273 7.61273 4.56737C6.543 4.60201 5.52063 5.0167 4.72904 5.73704L4.57504 5.88304ZM13.061 8.71104C13.2486 8.52357 13.5029 8.41826 13.768 8.41826C14.0332 8.41826 14.2875 8.52357 14.475 8.71104L18.717 12.953L19.425 12.247C20.2565 11.4162 20.7299 10.293 20.7439 9.1176C20.7579 7.94225 20.3115 6.80806 19.5001 5.9576C18.6887 5.10713 17.5767 4.60791 16.402 4.5667C15.2273 4.52548 14.0831 4.94554 13.214 5.73704L13.061 5.88304L9.87904 9.06504C9.70571 9.23826 9.60202 9.46908 9.58764 9.71371C9.57326 9.95833 9.6492 10.1997 9.80104 10.392L9.87904 10.479C10.0523 10.6524 10.2831 10.7561 10.5277 10.7704C10.7723 10.7848 11.0137 10.7089 11.206 10.557L11.293 10.479L13.061 8.71104Z" fill="#09121F"/>
</svg>
