<svg width="24" height="24" viewBox="0 0 24 24" fill="none" xmlns="http://www.w3.org/2000/svg">
<path fill-rule="evenodd" clip-rule="evenodd" d="M13.1987 4.8829H10.8021V0H13.1987V4.8829ZM4.36204 2.65744L7.82982 6.10986L6.13389 7.79703L2.66694 4.34461L4.36204 2.65744ZM12 17.0387C9.13034 17.0387 6.79458 14.7127 6.79458 11.855C6.79458 8.99657 9.13034 6.67225 12 6.67225C14.8697 6.67225 17.2046 8.99657 17.2046 11.855C17.2046 14.7127 14.8697 17.0387 12 17.0387ZM24 13.1443H19.0966V10.7568H24V13.1443ZM16.1702 17.7905L19.638 21.2445L21.3331 19.5557L17.8653 16.1033L16.1702 17.7905ZM13.1987 24H10.8021V19.1171H13.1987V24ZM4.36204 21.2445L2.66694 19.5557L6.13389 16.1033L7.82982 17.7905L4.36204 21.2445ZM4.90261 13.1443H0V10.7568H4.90261V13.1443ZM19.638 2.65744L21.3331 4.34461L17.8653 7.79703L16.1702 6.10986L19.638 2.65744ZM9.17647 11.9996C9.17647 10.4438 10.4431 9.17647 12 9.17647C13.5569 9.17647 14.8235 10.4438 14.8235 11.9996C14.8235 13.5571 13.5569 14.8235 12 14.8235C10.4431 14.8235 9.17647 13.5571 9.17647 11.9996Z" fill="currentColor"/>
</svg>
