<svg width="40" height="40" viewBox="0 0 40 40" fill="none" xmlns="http://www.w3.org/2000/svg">
<rect width="40" height="40" rx="20" fill="#FCF466"/>
<path fill-rule="evenodd" clip-rule="evenodd" d="M21.1987 12.8829H18.8021V8H21.1987V12.8829ZM12.362 10.6574L15.8298 14.1099L14.1339 15.797L10.6669 12.3446L12.362 10.6574ZM20 25.0387C17.1303 25.0387 14.7946 22.7127 14.7946 19.855C14.7946 16.9966 17.1303 14.6723 20 14.6723C22.8697 14.6723 25.2046 16.9966 25.2046 19.855C25.2046 22.7127 22.8697 25.0387 20 25.0387ZM32 21.1443H27.0966V18.7568H32V21.1443ZM24.1702 25.7905L27.638 29.2445L29.3331 27.5557L25.8653 24.1033L24.1702 25.7905ZM21.1987 32H18.8021V27.1171H21.1987V32ZM12.362 29.2445L10.6669 27.5557L14.1339 24.1033L15.8298 25.7905L12.362 29.2445ZM12.9026 21.1443H8V18.7568H12.9026V21.1443ZM27.638 10.6574L29.3331 12.3446L25.8653 15.797L24.1702 14.1099L27.638 10.6574ZM17.1765 19.9996C17.1765 18.4438 18.4431 17.1765 20 17.1765C21.5569 17.1765 22.8235 18.4438 22.8235 19.9996C22.8235 21.5571 21.5569 22.8235 20 22.8235C18.4431 22.8235 17.1765 21.5571 17.1765 19.9996Z" fill="#1D2445"/>
</svg>
