<svg width="24" height="24" viewBox="0 0 24 24" fill="none" xmlns="http://www.w3.org/2000/svg">
<path d="M13.733 14.6927C14.1438 14.259 14.6916 13.98 15.284 13.9027L18.367 13.4997L16.881 10.7697C16.595 10.2448 16.4985 9.63725 16.608 9.04962L17.178 5.99362L14.122 6.56362C13.5343 6.67305 12.9269 6.57664 12.402 6.29062L9.672 4.80462L9.269 7.88762C9.1914 8.47968 8.9125 9.027 8.479 9.43762L6.222 11.5757L9.029 12.9117C9.5684 13.1681 10.0031 13.6024 10.26 14.1417L11.596 16.9496L13.733 14.6927ZM8.17 14.7177L3.52 12.5047C3.432 12.4628 3.3556 12.4002 3.2973 12.3222C3.239 12.2442 3.2006 12.1531 3.1853 12.057C3.1701 11.9608 3.1785 11.8623 3.2098 11.7701C3.2411 11.6779 3.2943 11.5947 3.365 11.5277L7.104 7.98562C7.2038 7.891 7.268 7.76496 7.286 7.62862L7.954 2.52162C7.9667 2.42514 8.0027 2.33319 8.0588 2.25371C8.115 2.17423 8.1897 2.10961 8.2764 2.06542C8.3631 2.02123 8.4593 1.99879 8.5566 2.00005C8.6539 2.0013 8.7494 2.02621 8.835 2.07262L13.359 4.53462C13.48 4.60007 13.6198 4.62196 13.755 4.59662L18.818 3.65362C18.9138 3.63572 19.0126 3.64143 19.1057 3.67027C19.1988 3.69911 19.2835 3.75021 19.3524 3.81915C19.4214 3.88809 19.4725 3.97278 19.5013 4.06591C19.5302 4.15904 19.5359 4.25779 19.518 4.35362L18.575 9.41662C18.5496 9.55185 18.5715 9.69165 18.637 9.81265L21.099 14.3367C21.1454 14.4223 21.1703 14.5179 21.1715 14.6153C21.1727 14.7127 21.1502 14.8089 21.1059 14.8956C21.0616 14.9824 20.9968 15.057 20.9172 15.1131C20.8376 15.1692 20.7455 15.2051 20.649 15.2177L15.543 15.8857C15.4066 15.9036 15.2806 15.9678 15.186 16.0676L11.644 19.8067C11.5769 19.8773 11.4937 19.9306 11.4015 19.9619C11.3093 19.9932 11.2109 20.0015 11.1147 19.9862C11.0185 19.971 10.9275 19.9326 10.8495 19.8743C10.7715 19.816 10.7088 19.7396 10.667 19.6517L8.454 15.0017C8.3947 14.8772 8.2945 14.7769 8.17 14.7177ZM6.243 15.5147L7.657 16.9286L3.415 21.1716L2 19.7567L6.243 15.5147Z" fill="currentColor"/>
</svg>
