<svg width="40" height="40" viewBox="0 0 40 40" fill="none" xmlns="http://www.w3.org/2000/svg">
<rect width="40" height="40" rx="20" fill="#1D2445"/>
<g clip-path="url(#clip0_459_11598)">
<path d="M18.5 25H12V23H18.5C19.1387 23.0002 19.7653 23.1753 20.3116 23.5061C20.858 23.837 21.3035 24.311 21.5997 24.8769C21.8959 25.4428 22.0316 26.079 21.992 26.7166C21.9525 27.3541 21.7393 27.9686 21.3755 28.4936C21.0116 29.0186 20.5111 29.434 19.928 29.6949C19.3449 29.9557 18.7016 30.052 18.0677 29.9734C17.4338 29.8947 16.8336 29.6441 16.3319 29.2486C15.8303 28.8532 15.4465 28.328 15.222 27.73L17.095 27.027C17.1912 27.2833 17.3557 27.5084 17.5706 27.6779C17.7856 27.8474 18.0428 27.9548 18.3145 27.9886C18.5862 28.0223 18.8619 27.9811 19.1118 27.8693C19.3617 27.7575 19.5762 27.5795 19.7322 27.3545C19.8881 27.1295 19.9795 26.8661 19.9965 26.5929C20.0135 26.3197 19.9553 26.047 19.8284 25.8045C19.7015 25.5619 19.5106 25.3588 19.2764 25.217C19.0423 25.0751 18.7738 25.0001 18.5 25ZM13 19H26.5C27.1387 19.0002 27.7653 19.1753 28.3116 19.5061C28.858 19.837 29.3035 20.311 29.5997 20.8769C29.8959 21.4428 30.0316 22.079 29.992 22.7166C29.9525 23.3541 29.7393 23.9686 29.3755 24.4936C29.0116 25.0186 28.5111 25.434 27.928 25.6949C27.3449 25.9557 26.7016 26.052 26.0677 25.9734C25.4338 25.8947 24.8336 25.6441 24.3319 25.2486C23.8303 24.8532 23.4465 24.328 23.222 23.73L25.095 23.027C25.1912 23.2833 25.3557 23.5084 25.5706 23.6779C25.7856 23.8474 26.0428 23.9548 26.3145 23.9886C26.5862 24.0223 26.8619 23.9811 27.1118 23.8693C27.3617 23.7575 27.5762 23.5795 27.7322 23.3545C27.8881 23.1295 27.9795 22.8661 27.9965 22.5929C28.0135 22.3197 27.9553 22.047 27.8284 21.8045C27.7015 21.5619 27.5106 21.3588 27.2764 21.217C27.0423 21.0751 26.7738 21.0001 26.5 21H13C12.2044 21 11.4413 20.6839 10.8787 20.1213C10.3161 19.5587 10 18.7957 10 18C10 17.2044 10.3161 16.4413 10.8787 15.8787C11.4413 15.3161 12.2044 15 13 15H21.5C21.7738 14.9999 22.0423 14.9249 22.2764 14.7831C22.5106 14.6412 22.7015 14.4381 22.8284 14.1955C22.9553 13.953 23.0135 13.6803 22.9965 13.4071C22.9795 13.1339 22.8881 12.8705 22.7322 12.6455C22.5762 12.4205 22.3617 12.2425 22.1118 12.1307C21.8619 12.0189 21.5862 11.9777 21.3145 12.0114C21.0428 12.0452 20.7856 12.1526 20.5706 12.3221C20.3557 12.4916 20.1912 12.7167 20.095 12.973L18.222 12.271C18.5105 11.5038 19.059 10.8621 19.7719 10.4578C20.4849 10.0535 21.3171 9.91212 22.1236 10.0584C22.9301 10.2046 23.6597 10.6291 24.1853 11.2581C24.711 11.887 24.9993 12.6804 25 13.5C25 14.4283 24.6313 15.3185 23.9749 15.9749C23.3185 16.6313 22.4283 17 21.5 17H13C12.7348 17 12.4804 17.1054 12.2929 17.2929C12.1054 17.4804 12 17.7348 12 18C12 18.2652 12.1054 18.5196 12.2929 18.7071C12.4804 18.8946 12.7348 19 13 19Z" fill="white"/>
</g>
<defs>
<clipPath id="clip0_459_11598">
<rect width="24" height="24" fill="white" transform="translate(8 8)"/>
</clipPath>
</defs>
</svg>
